<svg width="338" height="259" viewBox="0 0 338 259" fill="none" xmlns="http://www.w3.org/2000/svg">
<g style="mix-blend-mode:luminosity">
<path opacity="0.4" d="M232.583 65.1437L229.081 69.5752L209.905 93.7888L206.403 82.8204L114.736 106.814C109.544 108.16 104.059 107.377 99.4544 104.635L98.9156 104.316C93.1114 100.84 85.8623 100.815 80.0337 104.292L46.8495 124.05L42.0984 110.804L39.6738 104.047L85.6174 84.5098C91.8624 81.8411 99.0136 82.3798 104.818 85.9053C108.761 89.0636 113.683 90.5571 118.63 90.2143C119.757 90.1408 120.883 89.9695 122.01 89.6757L200.085 70.481L195.064 59.2189L232.583 65.1437Z" fill="#6457A4"/>
<path opacity="0.4" d="M307.541 4.27354L304.617 35.0219L295.713 27.7219L231.836 97.7085C228.211 101.662 223.181 103.988 217.826 104.191L217.201 104.217C210.44 104.456 204.343 108.377 201.342 114.465L184.239 149.092L173.049 140.56L200.55 98.7865C204.348 93.0286 210.696 89.5855 217.652 89.512C222.8 90.1147 227.858 88.7332 231.844 85.7419C232.77 85.0543 233.608 84.2773 234.407 83.4386L289.747 23.8283L279.02 16.6882L307.541 4.27354Z" fill="white"/>
<path opacity="0.5" d="M149.072 242.62C149.072 242.62 150.174 237.478 144.443 236.964C144.443 236.964 143.439 241.249 149.072 242.62Z" fill="#6457A4"/>
<path d="M149.317 244.529C149.317 244.529 153.677 245.46 154.093 240.588C154.093 240.563 150.444 239.731 149.317 244.529Z" fill="#6457A4"/>
<path d="M148.998 241.934C148.998 241.934 150.223 248.275 149.267 251.433" stroke="#6457A4" stroke-miterlimit="10" stroke-linecap="round" stroke-linejoin="round"/>
<path d="M204.86 234.467C204.86 234.467 199.692 233.487 201.456 227.979C201.456 227.979 205.79 228.738 204.86 234.467Z" fill="#6457A4"/>
<path opacity="0.5" d="M205.472 228.248C205.668 228.028 205.105 226.755 205.007 226.485C204.125 223.694 204.934 219.924 207.432 218.161C207.53 219.312 207.603 220.414 207.872 221.54C208.313 223.303 208.117 224.282 207.138 225.751C206.599 226.632 206.183 227.465 205.472 228.248Z" fill="#6457A4"/>
<path opacity="0.5" d="M204.786 239.731C204.786 239.731 203.684 234.589 209.415 234.075C209.415 234.075 210.443 238.36 204.786 239.731Z" fill="#6457A4"/>
<path d="M204.738 244.48C204.738 244.48 200.378 245.411 199.962 240.539C199.938 240.514 203.587 239.682 204.738 244.48Z" fill="#6457A4"/>
<path d="M206.771 219.924C206.771 219.924 203.856 233.047 204.811 251.385" stroke="#6457A4" stroke-miterlimit="10" stroke-linecap="round" stroke-linejoin="round"/>
<path d="M261.677 201.439C261.677 201.439 263.857 196.641 258.347 194.927C258.347 194.927 256.461 198.893 261.677 201.439Z" fill="#6457A4"/>
<path opacity="0.5" d="M262.903 211.355C262.854 211.135 263.76 210.498 263.907 210.352C265.596 208.834 266.576 205.969 265.596 203.79C265.058 204.525 264.592 205.235 263.931 205.896C262.927 206.899 262.658 207.634 262.731 209.03C262.805 209.813 262.731 210.547 262.903 211.355Z" fill="#6457A4"/>
<path opacity="0.5" d="M264.029 238.704C264.029 238.704 265.131 233.562 259.4 233.048C259.4 233.048 258.396 237.332 264.029 238.704Z" fill="#6457A4"/>
<path d="M263.857 220.585C263.857 220.585 263.734 215.322 258.028 216.178C258.003 216.203 258.052 220.61 263.857 220.585Z" fill="#6457A4"/>
<path d="M264.176 230.476C264.176 230.476 269.343 229.473 267.556 223.988C267.58 223.988 263.245 224.747 264.176 230.476Z" fill="#6457A4"/>
<path d="M264.103 243.182C264.103 243.182 268.462 244.112 268.878 239.24C268.878 239.24 265.229 238.408 264.103 243.182Z" fill="#6457A4"/>
<path d="M261.286 200.118C261.286 200.118 266.037 221.223 263.588 251.386" stroke="#6457A4" stroke-miterlimit="10" stroke-linecap="round" stroke-linejoin="round"/>
<path d="M329.32 201.439C329.32 201.439 327.14 196.641 332.65 194.927C332.626 194.927 334.536 198.893 329.32 201.439Z" fill="#6457A4"/>
<path opacity="0.5" d="M328.095 211.355C328.144 211.135 327.238 210.498 327.091 210.352C325.401 208.834 324.422 205.969 325.401 203.79C325.94 204.525 326.405 205.235 327.067 205.896C328.071 206.899 329.54 207.634 329.467 209.03C329.393 209.813 328.242 210.547 328.095 211.355Z" fill="#6457A4"/>
<path opacity="0.5" d="M331.083 190.569C331.131 190.349 330.225 189.712 330.078 189.565C328.389 188.048 327.409 185.183 328.389 183.004C328.927 183.739 329.393 184.449 330.054 185.11C331.058 186.113 331.327 186.848 331.254 188.243C331.18 189.051 331.254 189.786 331.083 190.569Z" fill="#6457A4"/>
<path opacity="0.5" d="M326.969 238.704C326.969 238.704 325.867 233.562 331.598 233.048C331.598 233.048 332.602 237.332 326.969 238.704Z" fill="#6457A4"/>
<path d="M327.336 220.585C327.336 220.585 327.458 215.322 333.165 216.178C333.165 216.203 333.679 220.61 327.336 220.585Z" fill="#6457A4"/>
<path d="M332.137 181.388C332.137 181.388 330.79 176.295 336.496 175.512C336.496 175.536 338.21 179.601 332.137 181.388Z" fill="#6457A4"/>
<path d="M326.798 230.476C326.798 230.476 321.63 229.473 323.418 223.988C323.418 223.988 327.753 224.747 326.798 230.476Z" fill="#6457A4"/>
<path d="M326.894 243.182C326.894 243.182 322.535 244.112 322.118 239.24C322.094 239.24 325.743 238.408 326.894 243.182Z" fill="#6457A4"/>
<path opacity="0.5" d="M333.948 168.951C333.948 168.951 331.891 164.275 337.254 162.684C337.254 162.684 339.042 166.552 333.948 168.951Z" fill="#6457A4"/>
<path d="M334.364 167.8C334.364 167.8 324.936 221.246 327.385 251.385" stroke="#6457A4" stroke-miterlimit="10" stroke-linecap="round" stroke-linejoin="round"/>
<path opacity="0.2" d="M136.166 208.981H104.916V251.434H136.166V208.981Z" fill="#6457A4"/>
<path opacity="0.5" d="M112.435 203.888L104.916 208.98H136.141L143.66 203.888H112.435Z" fill="#6457A4"/>
<path d="M136.141 251.434L143.659 246.341V203.888L136.141 208.98V251.434Z" fill="#4E4688"/>
<path opacity="0.2" d="M188.036 189.688H156.786V251.434H188.036V189.688Z" fill="#6457A4"/>
<path opacity="0.5" d="M164.305 184.889L156.786 189.687H188.011L195.53 184.889H164.305Z" fill="#6457A4"/>
<path d="M188.012 251.433L195.53 244.578V187.288V184.889L188.012 189.687V251.433Z" fill="#4E4688"/>
<path opacity="0.2" d="M247.62 160.676H216.37V251.312H247.62V160.676Z" fill="#6457A4"/>
<path opacity="0.5" d="M223.889 155.852L216.37 160.675H247.62L255.138 155.852H223.889Z" fill="#6457A4"/>
<path d="M247.62 251.433L255.139 244.578V158.275V155.852L247.62 160.675V251.433Z" fill="#4E4688"/>
<path opacity="0.2" d="M306.471 125.469H275.222V251.434H306.471V125.469Z" fill="#6457A4"/>
<path d="M282.74 120.67L275.222 125.469H306.447L313.965 120.67H282.74Z" fill="#4E4688"/>
<path d="M306.446 251.434L313.965 244.578V123.069V120.67L306.446 125.469V251.434Z" fill="#4E4688"/>
<path d="M290.501 197.987C295.411 197.987 299.391 194.008 299.391 189.099C299.391 184.191 295.411 180.212 290.501 180.212C285.591 180.212 281.611 184.191 281.611 189.099C281.611 194.008 285.591 197.987 290.501 197.987Z" fill="#FCB713"/>
<path d="M290.085 194.315C289.693 194.29 289.351 194.217 289.057 194.143C288.763 194.045 288.493 193.947 288.273 193.825C288.053 193.702 287.857 193.605 287.734 193.482C287.587 193.36 287.489 193.286 287.416 193.237C287.342 193.164 287.293 193.115 287.293 193.066C287.269 193.017 287.293 192.919 287.367 192.821L287.906 191.964C287.955 191.866 288.028 191.817 288.126 191.817C288.224 191.817 288.322 191.866 288.469 191.989C288.689 192.16 288.934 192.331 289.228 192.478C289.522 192.625 289.816 192.723 290.11 192.772V190.03C289.791 189.908 289.449 189.736 289.13 189.589C288.812 189.418 288.493 189.222 288.224 188.977C287.955 188.732 287.734 188.439 287.563 188.12C287.391 187.778 287.318 187.386 287.318 186.921C287.318 186.578 287.367 186.26 287.489 185.966C287.587 185.672 287.759 185.378 288.004 185.158C288.224 184.913 288.518 184.717 288.885 184.57C289.228 184.399 289.644 184.301 290.134 184.277V183.836C290.134 183.762 290.159 183.689 290.208 183.64C290.257 183.591 290.33 183.567 290.404 183.567H290.575C290.649 183.567 290.722 183.591 290.771 183.64C290.82 183.689 290.844 183.762 290.844 183.836V184.301C291.163 184.326 291.457 184.374 291.726 184.472C291.995 184.546 292.24 184.644 292.461 184.742C292.681 184.84 292.853 184.938 293 185.036C293.147 185.133 293.244 185.182 293.318 185.231C293.391 185.28 293.44 185.354 293.44 185.452C293.465 185.55 293.44 185.623 293.391 185.697L292.828 186.504C292.706 186.676 292.583 186.7 292.436 186.627C292.24 186.504 291.995 186.358 291.726 186.211C291.457 186.064 291.163 185.941 290.82 185.868V188.439C291.138 188.561 291.457 188.732 291.8 188.904C292.142 189.075 292.461 189.296 292.755 189.54C293.049 189.785 293.269 190.103 293.465 190.446C293.661 190.789 293.759 191.181 293.759 191.646C293.759 192.405 293.514 193.066 293 193.58C292.485 194.094 291.775 194.388 290.82 194.437V195.906C290.82 195.979 290.795 196.053 290.746 196.077C290.697 196.126 290.624 196.151 290.551 196.151C290.477 196.151 290.379 196.151 290.257 196.126C290.159 196.102 290.11 196.028 290.11 195.906V194.315H290.085ZM290.085 185.746C289.718 185.794 289.448 185.917 289.277 186.088C289.106 186.284 289.008 186.504 289.008 186.774C289.008 187.068 289.106 187.288 289.277 187.484C289.448 187.655 289.718 187.851 290.085 188.047V185.746ZM290.795 192.772C291.114 192.723 291.383 192.625 291.579 192.454C291.775 192.282 291.873 192.038 291.873 191.719C291.873 191.45 291.8 191.181 291.628 190.936C291.457 190.691 291.187 190.471 290.795 190.275V192.772Z" fill="#F6F7F7"/>
<path opacity="0.9" d="M240.616 188.366C240.616 193.605 237.775 197.841 234.273 197.841C234.15 197.841 234.028 197.841 233.881 197.816H231.089C231.628 197.816 232.142 197.718 232.656 197.522C233.367 197.253 234.028 196.812 234.616 196.2C236.305 194.511 237.407 191.622 237.407 188.341C237.407 185.061 236.305 182.196 234.616 180.482C234.028 179.895 233.367 179.454 232.656 179.16C232.142 178.964 231.628 178.866 231.064 178.866H234.224C234.346 178.866 234.469 178.866 234.591 178.891C237.971 179.185 240.616 183.322 240.616 188.366Z" fill="#F37C20"/>
<path d="M237.456 188.366C237.456 191.647 236.354 194.512 234.664 196.226C234.077 196.813 233.415 197.278 232.705 197.548C232.215 197.743 231.677 197.841 231.138 197.841C231.04 197.841 230.942 197.841 230.844 197.841C227.489 197.621 224.795 193.459 224.795 188.391C224.795 183.323 227.464 179.161 230.844 178.941C230.942 178.941 231.04 178.941 231.138 178.941C231.677 178.941 232.215 179.038 232.73 179.234C233.44 179.504 234.101 179.944 234.689 180.556C236.33 182.197 237.456 185.086 237.456 188.366Z" fill="#FCB713"/>
<path d="M230.82 193.9C230.55 193.875 230.305 193.802 230.085 193.704C229.864 193.606 229.693 193.484 229.522 193.386C229.35 193.288 229.228 193.141 229.13 193.018C229.032 192.896 228.958 192.798 228.909 192.749C228.86 192.676 228.836 192.602 228.811 192.553C228.787 192.504 228.811 192.406 228.86 192.308L229.252 191.403C229.301 191.305 229.35 191.256 229.399 191.256C229.473 191.256 229.546 191.305 229.644 191.451C229.791 191.647 229.987 191.819 230.183 191.966C230.379 192.113 230.599 192.21 230.82 192.259V189.321C230.575 189.175 230.354 189.028 230.109 188.832C229.864 188.66 229.669 188.44 229.473 188.171C229.277 187.926 229.13 187.608 229.007 187.265C228.885 186.922 228.836 186.481 228.836 185.992C228.836 185.625 228.885 185.282 228.958 184.963C229.032 184.645 229.154 184.351 229.326 184.082C229.497 183.837 229.693 183.617 229.938 183.446C230.183 183.274 230.477 183.176 230.82 183.127V182.638C230.82 182.564 230.844 182.491 230.869 182.442C230.918 182.393 230.942 182.368 231.015 182.368H231.138C231.187 182.368 231.236 182.393 231.285 182.442C231.309 182.491 231.334 182.564 231.334 182.638V183.127C231.554 183.152 231.775 183.225 231.971 183.299C232.167 183.372 232.338 183.47 232.509 183.592C232.656 183.69 232.803 183.788 232.901 183.886C232.999 183.984 233.073 184.058 233.122 184.107C233.171 184.156 233.195 184.229 233.22 184.327C233.22 184.425 233.22 184.523 233.195 184.596L232.803 185.478C232.705 185.649 232.632 185.698 232.534 185.6C232.387 185.453 232.215 185.306 232.02 185.159C231.824 184.988 231.603 184.89 231.383 184.792V187.534C231.603 187.681 231.848 187.828 232.093 188.024C232.338 188.22 232.558 188.44 232.754 188.709C232.95 188.979 233.122 189.297 233.269 189.664C233.416 190.031 233.464 190.448 233.464 190.937C233.464 191.77 233.293 192.431 232.926 192.994C232.558 193.533 232.044 193.851 231.383 193.9V195.467C231.383 195.54 231.358 195.614 231.334 195.663C231.285 195.711 231.236 195.736 231.187 195.736C231.138 195.736 231.064 195.712 230.991 195.687C230.918 195.663 230.869 195.589 230.869 195.467V193.9H230.82ZM230.82 184.792C230.575 184.841 230.379 184.963 230.256 185.159C230.134 185.355 230.06 185.6 230.06 185.894C230.06 186.188 230.134 186.432 230.256 186.628C230.379 186.824 230.575 187.02 230.82 187.216V184.792ZM231.334 192.284C231.554 192.235 231.75 192.137 231.897 191.966C232.044 191.794 232.118 191.525 232.118 191.182C232.118 190.888 232.069 190.619 231.946 190.35C231.824 190.08 231.628 189.86 231.358 189.64V192.284H231.334Z" fill="#F6F7F7"/>
<path opacity="0.9" d="M298.046 227.244C298.046 232.483 295.205 236.719 291.703 236.719C291.581 236.719 291.458 236.719 291.311 236.694H288.52C289.058 236.694 289.573 236.596 290.087 236.4C290.797 236.131 291.458 235.69 292.046 235.078C293.736 233.389 294.838 230.5 294.838 227.219C294.838 223.938 293.736 221.074 292.046 219.36C291.458 218.773 290.797 218.332 290.087 218.038C289.573 217.842 289.058 217.744 288.495 217.744H291.654C291.777 217.744 291.899 217.744 292.022 217.769C295.401 218.063 298.046 222.2 298.046 227.244Z" fill="#F37C20"/>
<path d="M294.887 227.243C294.887 230.524 293.785 233.389 292.095 235.102C291.507 235.69 290.846 236.155 290.136 236.425C289.646 236.62 289.107 236.718 288.569 236.718C288.471 236.718 288.373 236.718 288.275 236.718C284.919 236.498 282.226 232.336 282.226 227.268C282.226 222.2 284.895 218.038 288.275 217.818C288.373 217.818 288.471 217.818 288.569 217.818C289.107 217.818 289.646 217.915 290.16 218.111C290.871 218.381 291.532 218.821 292.12 219.433C293.785 221.074 294.887 223.963 294.887 227.243Z" fill="#FCB713"/>
<path d="M288.251 232.777C287.982 232.752 287.737 232.679 287.516 232.581C287.296 232.483 287.125 232.36 286.953 232.262C286.782 232.14 286.659 232.018 286.561 231.895C286.463 231.773 286.39 231.675 286.341 231.626C286.292 231.552 286.267 231.479 286.243 231.43C286.218 231.381 286.243 231.283 286.292 231.185L286.684 230.279C286.733 230.181 286.782 230.132 286.831 230.132C286.904 230.132 286.978 230.181 287.076 230.328C287.222 230.524 287.418 230.696 287.614 230.842C287.81 230.989 288.031 231.087 288.251 231.136V228.198C288.006 228.051 287.786 227.904 287.541 227.709C287.296 227.537 287.1 227.317 286.904 227.048C286.708 226.803 286.561 226.484 286.439 226.142C286.316 225.799 286.267 225.358 286.267 224.869C286.267 224.501 286.316 224.159 286.39 223.84C286.463 223.522 286.586 223.228 286.757 222.959C286.929 222.714 287.125 222.494 287.369 222.322C287.614 222.151 287.908 222.053 288.251 222.004V221.514C288.251 221.441 288.276 221.368 288.3 221.319C288.349 221.27 288.374 221.245 288.447 221.245H288.569C288.618 221.245 288.667 221.27 288.716 221.319C288.741 221.368 288.765 221.441 288.765 221.514V222.004C288.986 222.029 289.206 222.102 289.402 222.175C289.598 222.249 289.769 222.347 289.941 222.469C290.112 222.592 290.235 222.665 290.333 222.763C290.431 222.861 290.504 222.934 290.553 222.983C290.602 223.032 290.627 223.106 290.651 223.204C290.651 223.302 290.651 223.4 290.627 223.473L290.235 224.354C290.137 224.526 290.063 224.575 289.965 224.477C289.818 224.33 289.647 224.183 289.451 224.036C289.255 223.865 289.035 223.767 288.814 223.669V226.411C289.035 226.558 289.28 226.705 289.525 226.901C289.769 227.097 289.99 227.317 290.186 227.586C290.382 227.856 290.553 228.174 290.7 228.541C290.847 228.908 290.896 229.324 290.896 229.814C290.896 230.647 290.725 231.308 290.357 231.871C289.99 232.409 289.476 232.728 288.814 232.777V234.343C288.814 234.417 288.79 234.49 288.765 234.539C288.716 234.588 288.667 234.613 288.618 234.613C288.569 234.613 288.496 234.588 288.423 234.564C288.349 234.539 288.3 234.466 288.3 234.343V232.777H288.251ZM288.251 223.669C288.006 223.718 287.81 223.84 287.688 224.036C287.565 224.232 287.492 224.477 287.492 224.771C287.492 225.064 287.565 225.309 287.688 225.505C287.81 225.701 288.006 225.897 288.251 226.093V223.669ZM288.765 231.136C288.986 231.087 289.182 230.989 289.329 230.818C289.476 230.647 289.549 230.377 289.549 230.034C289.549 229.741 289.5 229.471 289.378 229.202C289.255 228.933 289.059 228.712 288.79 228.492V231.136H288.765Z" fill="#F6F7F7"/>
<path opacity="0.9" d="M178.313 219.924C178.313 225.506 176.795 230.036 174.934 230.036H171.799C172.362 230.036 172.925 229.644 173.391 228.934C174.052 227.979 174.591 226.461 174.934 224.6C175.178 223.205 175.325 221.613 175.325 219.924C175.325 218.235 175.178 216.643 174.934 215.248C174.591 213.387 174.052 211.869 173.391 210.914C172.925 210.229 172.362 209.813 171.799 209.813H174.934C176.795 209.813 178.313 214.342 178.313 219.924Z" fill="#F37C20"/>
<path d="M175.324 219.924C175.324 221.613 175.177 223.205 174.932 224.6C174.589 226.461 174.05 227.979 173.389 228.934C172.924 229.619 172.361 230.036 171.797 230.036H171.773C169.814 230.036 168.222 225.506 168.222 219.924C168.222 214.342 169.814 209.813 171.773 209.813H171.797C172.361 209.813 172.924 210.204 173.389 210.914C174.05 211.869 174.589 213.387 174.932 215.248C175.177 216.643 175.324 218.235 175.324 219.924Z" fill="#FCB713"/>
<path d="M171.601 225.849C171.454 225.825 171.307 225.752 171.185 225.629C171.062 225.531 170.964 225.409 170.866 225.286C170.769 225.164 170.695 225.042 170.646 224.895C170.597 224.772 170.548 224.674 170.524 224.601C170.499 224.527 170.475 224.454 170.475 224.38C170.475 224.307 170.475 224.234 170.499 224.111L170.72 223.156C170.744 223.058 170.769 222.985 170.817 222.985C170.842 222.985 170.891 223.058 170.964 223.181C171.062 223.377 171.16 223.573 171.258 223.719C171.381 223.891 171.479 223.989 171.601 224.038V220.904C171.479 220.757 171.332 220.586 171.209 220.39C171.087 220.194 170.964 219.974 170.842 219.704C170.744 219.435 170.646 219.117 170.573 218.725C170.499 218.358 170.475 217.892 170.475 217.354C170.475 216.962 170.499 216.595 170.548 216.252C170.597 215.909 170.671 215.591 170.744 215.322C170.842 215.052 170.94 214.832 171.087 214.636C171.234 214.465 171.405 214.342 171.577 214.293V213.779C171.577 213.706 171.577 213.632 171.601 213.559C171.626 213.51 171.65 213.461 171.675 213.461H171.748C171.773 213.461 171.797 213.486 171.822 213.559C171.846 213.608 171.846 213.681 171.846 213.779V214.318C171.969 214.342 172.091 214.416 172.189 214.514C172.311 214.612 172.409 214.71 172.483 214.808C172.581 214.93 172.63 215.028 172.703 215.126C172.752 215.224 172.801 215.297 172.826 215.346C172.85 215.395 172.875 215.469 172.875 215.591C172.875 215.689 172.875 215.787 172.85 215.885L172.63 216.815C172.581 217.011 172.532 217.06 172.483 216.938C172.409 216.791 172.311 216.619 172.213 216.448C172.115 216.277 171.993 216.154 171.846 216.056V218.994C171.969 219.141 172.091 219.312 172.238 219.508C172.385 219.704 172.507 219.949 172.605 220.243C172.728 220.537 172.826 220.879 172.899 221.271C172.973 221.663 173.022 222.128 173.022 222.642C173.022 223.524 172.924 224.258 172.728 224.821C172.532 225.409 172.238 225.727 171.871 225.8V227.465C171.871 227.539 171.871 227.612 171.846 227.686C171.822 227.735 171.797 227.759 171.773 227.759C171.748 227.759 171.699 227.735 171.65 227.71C171.601 227.686 171.577 227.612 171.577 227.465V225.849H171.601ZM171.601 216.13C171.454 216.179 171.356 216.326 171.283 216.521C171.209 216.742 171.185 216.987 171.185 217.305C171.185 217.623 171.209 217.892 171.283 218.088C171.356 218.309 171.454 218.505 171.601 218.725V216.13ZM171.895 224.111C172.018 224.062 172.115 223.94 172.213 223.768C172.287 223.573 172.336 223.303 172.336 222.936C172.336 222.618 172.311 222.324 172.238 222.055C172.164 221.785 172.067 221.516 171.895 221.296V224.111Z" fill="#F6F7F7"/>
<path opacity="0.9" d="M236.428 226.583C236.428 232.165 234.909 236.695 233.048 236.695H229.913C230.476 236.695 231.04 236.303 231.505 235.593C232.166 234.638 232.705 233.12 233.048 231.26C233.293 229.864 233.44 228.273 233.44 226.583C233.44 224.894 233.293 223.303 233.048 221.907C232.705 220.046 232.166 218.528 231.505 217.574C231.04 216.888 230.476 216.472 229.913 216.472H233.048C234.934 216.472 236.428 221.001 236.428 226.583Z" fill="#F37C20"/>
<path d="M233.464 226.583C233.464 228.273 233.318 229.864 233.073 231.26C232.73 233.12 232.191 234.638 231.53 235.593C231.064 236.279 230.501 236.695 229.938 236.695H229.913C227.954 236.695 226.362 232.165 226.362 226.583C226.362 221.001 227.954 216.472 229.913 216.472H229.938C230.501 216.472 231.064 216.864 231.53 217.574C232.191 218.528 232.73 220.046 233.073 221.907C233.318 223.303 233.464 224.894 233.464 226.583Z" fill="#FCB713"/>
<path d="M229.742 232.509C229.595 232.484 229.448 232.411 229.325 232.288C229.203 232.19 229.105 232.068 229.007 231.946C228.909 231.823 228.836 231.701 228.787 231.554C228.738 231.431 228.689 231.333 228.664 231.26C228.64 231.187 228.615 231.113 228.615 231.04C228.615 230.966 228.615 230.893 228.64 230.77L228.86 229.815C228.885 229.718 228.909 229.644 228.958 229.644C228.983 229.644 229.032 229.718 229.105 229.84C229.203 230.036 229.301 230.232 229.399 230.379C229.521 230.55 229.619 230.648 229.742 230.697V227.563C229.619 227.416 229.472 227.245 229.35 227.049C229.227 226.853 229.105 226.633 228.983 226.363C228.885 226.094 228.787 225.776 228.713 225.384C228.64 225.017 228.615 224.552 228.615 224.013C228.615 223.621 228.64 223.254 228.689 222.911C228.738 222.569 228.811 222.25 228.885 221.981C228.983 221.712 229.081 221.491 229.227 221.295C229.374 221.124 229.546 221.002 229.717 220.953V220.439C229.717 220.365 229.717 220.292 229.742 220.218C229.766 220.169 229.791 220.12 229.815 220.12H229.889C229.913 220.12 229.938 220.145 229.962 220.218C229.987 220.267 229.987 220.341 229.987 220.439V220.977C230.109 221.002 230.232 221.075 230.33 221.173C230.452 221.271 230.55 221.369 230.623 221.467C230.721 221.589 230.77 221.687 230.844 221.785C230.893 221.883 230.942 221.956 230.966 222.005C230.991 222.054 231.015 222.128 231.015 222.25C231.015 222.348 231.015 222.446 230.991 222.544L230.77 223.474C230.721 223.67 230.672 223.719 230.623 223.597C230.55 223.45 230.452 223.279 230.354 223.107C230.256 222.936 230.134 222.813 229.987 222.715V225.653C230.109 225.8 230.232 225.972 230.379 226.168C230.525 226.363 230.648 226.608 230.746 226.902C230.868 227.196 230.966 227.539 231.04 227.93C231.113 228.322 231.162 228.787 231.162 229.301C231.162 230.183 231.064 230.917 230.868 231.48C230.672 232.068 230.379 232.386 230.011 232.46V234.125C230.011 234.198 230.011 234.271 229.987 234.345C229.962 234.394 229.938 234.418 229.913 234.418C229.889 234.418 229.84 234.394 229.791 234.369C229.742 234.345 229.717 234.271 229.717 234.125V232.509H229.742ZM229.742 222.764C229.595 222.813 229.497 222.96 229.423 223.156C229.35 223.376 229.325 223.621 229.325 223.94C229.325 224.258 229.35 224.527 229.423 224.723C229.497 224.943 229.595 225.139 229.742 225.36V222.764ZM230.036 230.746C230.158 230.697 230.256 230.574 230.354 230.403C230.428 230.207 230.476 229.938 230.476 229.571C230.476 229.252 230.452 228.959 230.379 228.689C230.305 228.42 230.207 228.151 230.036 227.93V230.746Z" fill="#F6F7F7"/>
<path opacity="0.9" d="M297.262 151.764C297.262 157.346 295.744 161.875 293.883 161.875H290.748C291.311 161.875 291.875 161.484 292.34 160.774C293.001 159.819 293.54 158.301 293.883 156.44C294.128 155.045 294.275 153.453 294.275 151.764C294.275 150.075 294.128 148.483 293.883 147.088C293.54 145.227 293.001 143.709 292.34 142.754C291.875 142.069 291.311 141.652 290.748 141.652H293.883C295.744 141.652 297.262 146.182 297.262 151.764Z" fill="#F37C20"/>
<path d="M294.274 151.765C294.274 153.454 294.127 155.046 293.882 156.441C293.539 158.302 293.001 159.82 292.339 160.775C291.874 161.46 291.311 161.876 290.747 161.876H290.723C288.764 161.876 287.172 157.347 287.172 151.765C287.172 146.183 288.764 141.653 290.723 141.653H290.747C291.311 141.653 291.874 142.045 292.339 142.755C293.001 143.71 293.539 145.228 293.882 147.089C294.127 148.484 294.274 150.076 294.274 151.765Z" fill="#FCB713"/>
<path d="M290.576 157.69C290.429 157.666 290.282 157.592 290.159 157.47C290.037 157.372 289.939 157.25 289.841 157.127C289.743 157.005 289.67 156.882 289.621 156.735C289.572 156.613 289.523 156.515 289.498 156.442C289.474 156.368 289.449 156.295 289.449 156.221C289.449 156.148 289.449 156.074 289.474 155.952L289.694 154.997C289.719 154.899 289.743 154.826 289.792 154.826C289.817 154.826 289.866 154.899 289.939 155.022C290.037 155.217 290.135 155.413 290.233 155.56C290.355 155.732 290.453 155.83 290.576 155.879V152.745C290.453 152.598 290.306 152.426 290.184 152.231C290.061 152.035 289.939 151.814 289.817 151.545C289.719 151.276 289.621 150.957 289.547 150.566C289.474 150.198 289.449 149.733 289.449 149.195C289.449 148.803 289.474 148.436 289.523 148.093C289.572 147.75 289.645 147.432 289.719 147.163C289.817 146.893 289.915 146.673 290.061 146.477C290.208 146.306 290.38 146.183 290.551 146.134V145.62C290.551 145.547 290.551 145.473 290.576 145.4C290.6 145.351 290.625 145.302 290.649 145.302H290.723C290.747 145.302 290.772 145.326 290.796 145.4C290.821 145.449 290.821 145.522 290.821 145.62V146.159C290.943 146.183 291.065 146.257 291.163 146.355C291.286 146.453 291.384 146.551 291.457 146.648C291.555 146.771 291.604 146.869 291.678 146.967C291.727 147.065 291.776 147.138 291.8 147.187C291.825 147.236 291.849 147.309 291.849 147.432C291.849 147.53 291.849 147.628 291.825 147.726L291.604 148.656C291.555 148.852 291.506 148.901 291.457 148.778C291.384 148.632 291.286 148.46 291.188 148.289C291.09 148.117 290.968 147.995 290.821 147.897V150.835C290.943 150.982 291.065 151.153 291.212 151.349C291.359 151.545 291.482 151.79 291.58 152.084C291.702 152.377 291.8 152.72 291.874 153.112C291.947 153.504 291.996 153.969 291.996 154.483C291.996 155.364 291.898 156.099 291.702 156.662C291.506 157.25 291.212 157.568 290.845 157.641V159.306C290.845 159.38 290.845 159.453 290.821 159.526C290.796 159.575 290.772 159.6 290.747 159.6C290.723 159.6 290.674 159.575 290.625 159.551C290.576 159.526 290.551 159.453 290.551 159.306V157.69H290.576ZM290.576 147.971C290.429 148.019 290.331 148.166 290.257 148.362C290.184 148.583 290.159 148.827 290.159 149.146C290.159 149.464 290.184 149.733 290.257 149.929C290.331 150.15 290.429 150.345 290.576 150.566V147.971ZM290.845 155.952C290.968 155.903 291.065 155.781 291.163 155.609C291.237 155.413 291.286 155.144 291.286 154.777C291.286 154.459 291.261 154.165 291.188 153.895C291.114 153.626 291.017 153.357 290.845 153.136V155.952V155.952Z" fill="#F6F7F7"/>
<path d="M120.541 238.189C125.451 238.189 129.431 234.21 129.431 229.301C129.431 224.393 125.451 220.414 120.541 220.414C115.632 220.414 111.651 224.393 111.651 229.301C111.651 234.21 115.632 238.189 120.541 238.189Z" fill="#FCB713"/>
<path d="M120.125 234.518C119.733 234.493 119.391 234.42 119.097 234.346C118.803 234.248 118.533 234.15 118.313 234.028C118.093 233.906 117.897 233.808 117.774 233.685C117.627 233.563 117.529 233.489 117.456 233.44C117.382 233.367 117.333 233.318 117.333 233.269C117.309 233.22 117.333 233.122 117.407 233.024L117.946 232.167C117.995 232.069 118.068 232.02 118.166 232.02C118.264 232.02 118.362 232.069 118.509 232.192C118.729 232.363 118.974 232.535 119.268 232.681C119.562 232.828 119.856 232.926 120.15 232.975V230.233C119.831 230.111 119.489 229.939 119.17 229.792C118.852 229.621 118.533 229.425 118.264 229.18C117.995 228.936 117.774 228.642 117.603 228.323C117.431 227.981 117.358 227.589 117.358 227.124C117.358 226.781 117.407 226.463 117.529 226.169C117.627 225.875 117.799 225.581 118.044 225.361C118.264 225.116 118.558 224.92 118.925 224.773C119.268 224.602 119.684 224.504 120.174 224.48V224.039C120.174 223.966 120.199 223.892 120.248 223.843C120.297 223.794 120.37 223.77 120.444 223.77H120.615C120.689 223.77 120.762 223.794 120.811 223.843C120.86 223.892 120.884 223.966 120.884 224.039V224.504C121.203 224.529 121.497 224.578 121.766 224.676C122.036 224.749 122.28 224.847 122.501 224.945C122.721 225.043 122.893 225.141 123.04 225.239C123.187 225.337 123.285 225.386 123.358 225.435C123.431 225.483 123.48 225.557 123.48 225.655C123.505 225.753 123.48 225.826 123.431 225.9L122.868 226.708C122.746 226.879 122.623 226.903 122.476 226.83C122.28 226.708 122.036 226.561 121.766 226.414C121.497 226.267 121.203 226.145 120.86 226.071V228.642C121.178 228.764 121.497 228.936 121.84 229.107C122.182 229.278 122.501 229.499 122.795 229.743C123.089 229.988 123.309 230.307 123.505 230.649C123.701 230.992 123.799 231.384 123.799 231.849C123.799 232.608 123.554 233.269 123.04 233.783C122.525 234.297 121.815 234.591 120.86 234.64V236.109C120.86 236.183 120.836 236.256 120.787 236.28C120.738 236.329 120.664 236.354 120.591 236.354C120.517 236.354 120.419 236.354 120.297 236.329C120.199 236.305 120.15 236.231 120.15 236.109V234.518H120.125ZM120.125 225.949C119.758 225.998 119.489 226.12 119.317 226.291C119.146 226.487 119.048 226.708 119.048 226.977C119.048 227.271 119.146 227.491 119.317 227.687C119.489 227.858 119.758 228.054 120.125 228.25V225.949ZM120.836 232.975C121.154 232.926 121.423 232.828 121.619 232.657C121.815 232.486 121.913 232.241 121.913 231.922C121.913 231.653 121.84 231.384 121.668 231.139C121.497 230.894 121.227 230.674 120.836 230.478V232.975Z" fill="#F6F7F7"/>
<path d="M153.872 97.2634C153.651 97.802 153.333 98.2672 152.917 98.6589C152.525 99.0507 152.035 99.3689 151.496 99.5893L145.276 102.038C144.982 102.16 145.031 102.601 145.349 102.65L147.651 103.017C148.337 103.115 148.631 103.923 148.19 104.461C148.117 104.559 147.994 104.608 147.872 104.608H147.847L141.529 104.217L140.378 104.143C139.398 104.094 138.418 104.217 137.488 104.535L134.794 105.441L135.308 100.103L135.382 99.3689L145.864 96.2596C146.427 96.0882 147.015 96.0148 147.602 96.0148L153.088 96.0882C153.7 96.0637 154.092 96.7003 153.872 97.2634Z" fill="#F28389"/>
<path d="M141.529 104.193L140.378 104.119C139.398 104.07 138.418 104.193 137.488 104.511L136.386 104.878C136.851 104.168 137.145 103.311 137.145 102.405V99.6388C137.733 100.251 138.027 101.695 138.761 102.087C139.202 102.332 139.741 102.356 140.157 102.601C140.427 102.773 140.647 103.017 140.843 103.262C141.112 103.556 141.357 103.874 141.529 104.193Z" fill="#F16B6C"/>
<path d="M123.235 186.505L120.443 195.784L119.023 200.485L118.851 201.121L116.966 200.705L116.5 200.583L113.537 199.922L113.635 198.232L114.125 190.349L114.296 187.509L123.235 186.505Z" fill="#F28389"/>
<path d="M122.156 196.813C121.275 197.768 120.883 199.115 119.903 199.971C119.634 200.192 119.34 200.363 119.022 200.51C118.385 200.779 117.65 200.828 116.964 200.706C116.793 200.681 116.646 200.632 116.475 200.608C116.254 200.535 116.034 200.461 115.838 200.363C114.907 199.922 114.173 199.139 113.634 198.258L114.124 190.374C114.368 190.423 114.613 190.521 114.858 190.717C115.985 191.598 116.793 192.92 117.895 193.851C118.091 194.022 119.34 195.001 120.418 195.809C121.299 196.421 122.058 196.911 122.156 196.813Z" fill="#F16B6C"/>
<path d="M36.71 234.149L27.3302 240.931L24.7098 242.816L20.0566 240.71L21.1097 239.486L24.5628 235.544L31.9344 227.122L36.3916 233.684L36.71 234.149Z" fill="#F28389"/>
<path d="M49.4457 177.814L38.621 202.248L19.7391 193.899L11.0451 190.055L9.01239 189.15L0.122451 185.208L0 185.159L0.832667 183.298L1.71431 181.266L3.9919 176.149L5.33886 173.113L10.8247 160.7L24.3677 166.723L29.3882 168.951L33.9434 170.959L34.5557 171.228L38.4741 172.966L42.3435 174.68L48.6865 177.471L48.8824 177.569L49.4457 177.814Z" fill="#E96924"/>
<path d="M36.6861 234.174L27.3064 240.931C26.5227 241.103 25.7635 241.274 24.9798 241.445C23.7798 241.715 22.2859 241.886 21.5512 240.882C21.2573 240.491 21.1593 239.976 21.1104 239.487L24.5635 235.545C28.0166 235.888 31.6656 235.692 34.7514 234.419C34.8493 234.37 34.9228 234.345 35.0208 234.296L36.0004 234.639L36.6861 234.174Z" fill="#F16B6C"/>
<path d="M25.5435 159.818L30.0497 161.825L29.4129 162.854L25.5925 161.164L23.3394 166.257L22.2373 165.767L24.7353 160.112C24.8822 159.818 25.2496 159.695 25.5435 159.818Z" fill="#A04323"/>
<path d="M40.3101 167.016L37.8121 172.671L36.71 172.181L38.9631 167.089L36.9794 166.208L35.4365 165.522L35.7059 164.42C35.7059 164.396 35.7059 164.347 35.7059 164.322L37.3957 165.057L40.0162 166.232C40.3101 166.354 40.457 166.722 40.3101 167.016Z" fill="#A04323"/>
<path d="M35.7066 164.42L35.4372 165.521L34.3106 165.007L34.2861 164.983C34.4576 164.615 34.629 164.248 34.7759 163.881L35.2168 164.077L35.7066 164.297C35.7066 164.346 35.7066 164.371 35.7066 164.42Z" fill="#A04323"/>
<path opacity="0.5" d="M10.7773 160.799L15.6264 174.95C15.9203 175.782 16.5325 176.468 17.3407 176.835L32.892 183.715C33.7002 184.082 34.6308 184.082 35.439 183.739L49.3004 177.766" fill="#FCB713"/>
<path d="M19.5428 180.336L19.1509 180.164C18.6366 179.944 18.3917 179.332 18.6366 178.818L19.3713 177.153C19.5917 176.639 20.204 176.394 20.7183 176.639L21.1101 176.81C21.6244 177.03 21.8693 177.642 21.6244 178.157L20.8897 179.821C20.6693 180.311 20.0571 180.556 19.5428 180.336Z" fill="#A04323"/>
<path d="M29.3396 184.67L28.9478 184.498C28.4335 184.278 28.1886 183.666 28.4335 183.152L29.1682 181.487C29.3886 180.973 30.0009 180.728 30.5152 180.973L30.907 181.144C31.4213 181.364 31.6662 181.976 31.4213 182.491L30.6866 184.155C30.4662 184.67 29.8539 184.89 29.3396 184.67Z" fill="#A04323"/>
<path opacity="0.15" d="M34.5552 171.227L1.71387 181.265L3.99146 176.148L28.4327 168.999L29.3878 168.95L33.943 170.958L34.5552 171.227Z" fill="#F6F7F7"/>
<path d="M10.2126 160.43L0.416518 182.587C0.0491652 183.444 0.000184813 184.35 0.245087 185.182C0.245087 185.207 0.269577 185.256 0.269577 185.28C0.587949 186.259 1.29816 187.092 2.32675 187.532L35.6334 202.296C37.6661 203.202 40.0172 202.271 40.9233 200.239L50.6214 178.327L10.2126 160.43ZM40.2376 198.599C39.3314 200.631 36.9804 201.537 34.9477 200.655L11.0453 190.079H11.0208L8.98808 189.173L3.42881 186.676C2.54716 186.284 1.88593 185.598 1.51858 184.766C1.10224 183.835 1.07775 182.734 1.51858 181.73L10.8248 160.724L48.6867 177.47L48.8826 177.568L49.4459 177.813L40.2376 198.599Z" fill="#A04323"/>
<path opacity="0.15" d="M48.8826 177.569L12.9065 190.667L11.0452 190.031H11.0207L8.98803 189.125L3.42876 186.676C2.54711 186.285 1.88588 185.599 1.51852 184.767L38.4742 172.966L42.3437 174.68L48.6622 177.471L48.8826 177.569Z" fill="#F6F7F7"/>
<path d="M133.373 154.507L122.941 189.175C122.647 190.154 121.79 190.864 120.785 190.962L117.822 191.623L113.12 192.725L115.128 164.251L90.9074 172.281C88.4094 173.334 86.4992 175.415 85.5931 177.961L77.3889 199.188L75.4541 204.207C74.4255 206.827 72.6867 209.104 70.4336 210.768C70.3357 210.842 70.2132 210.915 70.1153 210.989L36.7351 234.15L36.7106 234.174L36.0249 234.639L35.0453 234.297L31.935 233.17L27.6982 231.628L54.466 203.301C55.1762 202.591 55.813 201.832 56.3273 201C56.3763 200.926 56.4252 200.828 56.4742 200.755C57.16 199.629 57.6498 198.429 57.9681 197.156L61.2743 183.568L62.1804 179.847L66.1234 163.737L66.3438 162.831L98.4014 151.985L101.046 151.079L104.842 149.635L104.916 149.61L123.259 142.608C124.141 142.265 125.047 142.118 125.953 142.118C128.622 142.118 131.169 143.538 132.565 145.962C134.01 148.557 134.329 151.642 133.373 154.507Z" fill="#4E4688"/>
<path opacity="0.2" d="M104.916 149.585C104.916 149.585 103.667 160.872 87.4057 167.776C80.524 170.689 75.43 173.97 71.4381 176.81L56.4746 200.73C57.1603 199.604 57.6501 198.404 57.9685 197.131L61.2747 183.543L62.1808 179.822L66.1237 163.712L98.4018 151.96L104.843 149.61L104.916 149.585Z" fill="black"/>
<path d="M95.3892 121.747L96.0749 159.28C96.0749 159.28 90.1238 163.54 88.8748 163.393L88.1401 163.687L87.6013 163.907C87.6013 163.907 82.9727 166.38 82.7278 166.478L80.5726 148.899L77.144 121.037L75.748 112.321L77.3889 112.174L78.1971 112.101L82.6053 111.685H82.6298H82.6543L93.4055 111.048L93.6259 111.024H93.7239L94.2381 110.999L95.1198 110.95L96.1484 110.607L97.3239 110.216L97.6423 110.093L98.8178 109.604L99.3566 109.383L100.508 108.894L101.071 113.448L95.3892 121.747Z" fill="white"/>
<path d="M96.0735 111.611C96.0735 111.611 95.5102 115.7 95.3388 116.655C95.3143 116.752 95.3143 116.801 95.3143 116.826C95.3143 116.85 95.2898 116.85 95.2653 116.875C94.8735 117.169 92.0571 118.124 89.9265 118.834C88.5305 119.299 87.4285 119.641 87.4285 119.641L80.3263 113.031C80.3263 113.031 79.6651 112.566 82.1631 112.615C82.2855 112.615 82.0406 111.831 82.0896 111.685C82.0896 111.66 82.1141 111.66 82.1141 111.66C82.1631 111.66 82.212 111.66 82.261 111.66C82.3835 111.66 82.5059 111.66 82.6284 111.636C83.1427 111.538 83.608 111.219 83.9998 110.779C84.6121 110.118 85.0774 109.163 85.4448 108.232C86.0325 106.739 86.3019 105.319 86.3019 105.319C86.3019 105.319 86.6448 104.903 87.1836 104.413C88.3346 103.336 90.3918 101.916 91.5183 103.899C91.8367 104.462 92.0816 105.27 92.2285 106.421C92.3265 107.229 92.449 107.914 92.5959 108.526C92.8408 109.554 93.1592 110.289 93.4775 110.779C93.5265 110.852 93.5755 110.901 93.6 110.974C94.751 112.541 96.0735 111.611 96.0735 111.611Z" fill="#F28389"/>
<path d="M35.437 165.524L36.9799 166.209L36.5391 167.482C36.4901 167.605 36.3921 167.703 36.2697 167.727C35.6084 167.923 34.9962 167.335 35.1431 166.674L35.437 165.524Z" fill="#F16B6C"/>
<path d="M42.295 155.754L41.2909 156.929L40.5317 157.786C39.8215 158.594 39.2827 159.525 38.9398 160.528L38.3521 162.218L37.3725 165.058L35.6826 164.323C35.6582 164.078 35.3888 163.956 35.1928 164.103C35.1683 164.103 35.1683 164.127 35.1439 164.127L34.2867 165.009L30.4907 168.95C30.0989 169.367 29.6091 169.685 29.0948 169.905C28.5805 170.126 28.0172 170.248 27.4294 170.248C26.8172 170.248 26.4009 169.636 26.6213 169.048L28.654 163.956C28.8254 163.54 29.0213 163.173 29.2662 162.805C29.3642 162.683 29.4376 162.56 29.5356 162.438L29.9519 161.948L36.4418 153.967L42.295 155.754Z" fill="#F28389"/>
<path d="M93.7249 110.413L89.782 115.04C89.0228 115.922 87.6758 116.02 86.7942 115.261L82.6309 111.662L83.1452 117.464L88.1656 120.476L90.7371 121.186L92.9167 115.236L93.7249 110.413Z" fill="#F16B6C"/>
<g opacity="0.15">
<path opacity="0.15" d="M83.9528 113.105L90.3937 119.471L87.7243 123.731L79.6425 113.522L83.9528 113.105Z" fill="#6457A4"/>
<path opacity="0.15" d="M100.484 108.869L98.2796 116.875L98.1816 118.148L94.6305 121.625L90.1243 119.201H90.0999L90.0019 119.152V119.103L90.0999 118.907L93.6999 111.024L94.2142 110.999L95.0959 110.926L96.1489 110.607L97.3 110.216L97.6183 110.093L100.484 108.869Z" fill="#6457A4"/>
</g>
<path d="M89.8311 118.835L87.0392 123.291L78.1982 112.102L82.6065 111.686H82.631L89.8311 118.835Z" fill="white"/>
<path d="M97.619 110.095L95.3414 116.681L95.2679 116.901L93.872 120.965L90.4924 119.178L89.9291 118.884L89.8311 118.835L93.3822 111.05L93.4802 110.854C93.5291 110.927 93.774 110.878 93.823 110.927H93.9944C94.1414 110.927 94.3128 110.927 94.4598 110.927C95.023 110.903 95.5863 110.805 96.1251 110.609L97.3006 110.217L97.619 110.095Z" fill="white"/>
<path d="M137.169 98.8566V102.97C137.169 103.876 136.899 104.732 136.409 105.442C135.895 106.226 135.111 106.862 134.181 107.205C130.507 108.527 124.997 111.367 119.609 114.33C113.707 117.586 107.927 121.038 104.866 122.899C103.299 123.854 102.172 125.372 101.756 127.159C98.9883 139.131 104.376 151.03 104.376 151.03C104.376 151.03 103.519 152.425 102.172 154.09C100.482 156.196 98.0332 158.717 95.5842 159.427C94.5066 159.746 93.429 158.889 93.4535 157.763L93.9923 129.215L94.0413 126.89C94.0413 126.865 94.0413 126.841 94.0413 126.841C94.0903 124.441 94.5556 122.066 95.4128 119.838L99.5026 109.115L103.348 108.062L137.169 98.8566Z" fill="#6457A4"/>
<path d="M103.348 108.087L93.9932 129.24L94.0421 126.914C94.0421 126.89 94.0421 126.865 94.0421 126.865C94.0911 124.466 94.5564 122.091 95.4136 119.863L99.5035 109.14L103.348 108.087Z" fill="#4E4688"/>
<path d="M89.243 122.017L85.5205 143.121L89.243 147.993L92.5982 142.558L91.5206 121.895L89.243 122.017Z" fill="#FCB713"/>
<path d="M89.8057 123.633L87.4546 128.97L85.0791 134.283L84.8586 134.136L92.4996 125.445L93.5527 124.245L92.818 125.665L86.2301 138.568L85.8627 138.274L90.271 134.087L94.6792 129.901L96.2466 128.432L95.0221 130.194L90.8588 136.291L88.7771 139.351L86.6954 142.387L86.426 142.142L95.7568 135.874L96.4425 135.409L95.9038 136.021L89.8057 142.877L95.7323 135.899L95.8793 136.046L86.6464 142.436L85.8383 142.999L86.377 142.191L88.4342 139.131L90.5159 136.07L94.6548 129.95L94.9976 130.243L90.6139 134.43L86.1811 138.617L85.177 139.571L85.8138 138.347L92.4506 125.494L92.7935 125.714L85.0546 134.308L84.4668 134.944L84.8342 134.161L87.3077 128.897L89.8057 123.633Z" fill="#F6F7F7"/>
<path d="M89.5608 118.983L87.6016 121.064L89.0954 123.414L91.2016 123.292L92.2302 120.378L89.5608 118.983Z" fill="#E96924"/>
<path d="M110.598 204.158C110.671 204.696 110.794 205.186 110.941 205.676C110.99 205.896 111.088 206.116 111.259 206.263C111.406 206.41 111.553 206.434 111.749 206.483C114.075 207.071 116.328 207.193 118.704 206.802C118.484 206.361 118.753 205.945 119.194 205.798C119.635 205.651 120.075 205.773 120.492 205.871C121.275 206.067 121.986 206.312 122.794 206.483C126.859 207.365 130.729 207.316 134.77 206.312C135.774 206.067 136.68 205.676 137.561 205.137C137.782 205.014 137.953 204.868 138.076 204.623C138.198 204.378 138.125 204.035 138.076 203.766C137.978 203.325 137.855 202.884 137.488 202.591C137.243 202.395 136.974 202.346 136.68 202.297C135.112 202.028 133.57 202.248 132.002 201.856C129.578 201.244 127.667 199.653 125.61 198.257C124.337 197.376 122.99 196.519 121.643 195.784C120.786 195.319 120.345 195.711 119.831 196.372C119.316 197.009 118.949 197.719 118.263 198.208C117.431 198.82 116.475 198.943 115.618 198.331C115.128 197.988 114.908 197.376 114.541 196.886C114.296 196.568 113.977 196.201 113.586 196.054C113.071 195.858 112.851 196.005 112.508 196.421C111.896 197.131 111.455 197.963 111.161 198.869C110.573 200.583 110.377 202.321 110.598 204.158Z" fill="#444445"/>
<path d="M131.806 206.875C131.879 206.851 131.953 206.851 132.026 206.826C132.002 206.728 131.977 206.63 131.953 206.532C131.879 206.557 131.806 206.557 131.732 206.581C131.757 206.679 131.781 206.777 131.806 206.875Z" fill="#444445"/>
<path d="M110.573 203.864C110.573 203.937 110.598 204.084 110.622 204.182C110.622 204.28 110.647 204.378 110.671 204.452C110.671 204.525 110.696 204.574 110.696 204.647C110.696 204.696 110.72 204.721 110.72 204.77C110.745 204.843 110.769 204.966 110.769 205.039C110.794 205.113 110.794 205.162 110.818 205.186C110.818 205.235 110.843 205.284 110.843 205.308C110.843 205.333 110.843 205.333 110.843 205.357C110.843 205.382 110.843 205.382 110.867 205.406C110.867 205.431 110.867 205.455 110.892 205.504C110.916 205.553 110.916 205.627 110.941 205.7C110.965 205.774 110.99 205.872 111.039 205.97C111.039 205.994 111.039 205.994 111.063 206.043C111.088 206.092 111.112 206.214 111.137 206.263C113.659 207.145 116.059 207.194 118.679 206.851C118.606 206.533 118.679 205.847 119.047 205.798C119.586 205.7 120.124 205.872 120.59 205.945C121.08 205.994 121.398 206.141 121.839 206.263C121.839 206.263 121.839 206.263 121.863 206.263C122.133 206.337 122.451 206.435 122.72 206.508C123.92 206.802 125.267 207.12 126.467 207.194C127.986 207.267 129.357 207.145 130.778 207.071C131.072 207.047 131.292 207.022 131.488 206.998C131.708 206.973 131.904 206.949 132.027 206.924C133.545 206.68 134.965 206.361 136.386 205.823C136.484 205.798 136.508 205.774 136.557 205.749C136.631 205.725 136.704 205.676 136.753 205.651C136.802 205.627 136.802 205.627 136.851 205.602C136.876 205.578 136.9 205.578 136.925 205.578C137.366 205.308 137.782 205.064 138.1 204.647C138.125 204.623 138.1 204.598 138.125 204.525C138.149 204.452 138.149 204.305 138.149 204.207C138.149 204.182 138.149 204.133 138.149 204.109C138.149 204.084 138.149 204.06 138.149 204.035C138.149 203.913 138.125 203.791 138.1 203.668C138.027 203.717 138.027 203.742 137.953 203.791C136.974 204.427 136.288 204.868 135.039 205.162C132.859 205.7 130.116 206.018 127.912 206.116C126.835 206.165 125.512 205.97 124.753 205.847C123.088 205.578 121.594 205.137 120.271 204.77C119.218 204.476 119.071 204.427 118.141 204.329C117.822 204.305 117.651 204.354 117.186 204.354C115.079 204.354 112.802 204.256 110.696 203.913C110.647 203.864 110.573 203.839 110.573 203.864Z" fill="black"/>
<path d="M110.597 204.183C110.573 204.281 110.622 204.354 110.646 204.452C110.646 204.452 110.646 204.452 110.646 204.477C110.646 204.501 110.671 204.599 110.671 204.648C110.671 204.697 110.695 204.721 110.695 204.77C110.695 204.819 110.72 204.844 110.72 204.893C110.72 204.942 110.744 205.015 110.769 205.064C110.793 205.113 110.793 205.187 110.818 205.211C110.842 205.236 110.818 205.26 110.842 205.284C110.842 205.309 110.842 205.309 110.867 205.333C110.867 205.358 110.867 205.358 110.867 205.382C110.867 205.407 110.867 205.407 110.891 205.431C110.891 205.456 110.891 205.48 110.916 205.505C110.916 205.529 110.916 205.48 110.916 205.529C110.94 205.578 110.94 205.652 110.965 205.725C110.989 205.799 111.014 205.897 111.063 205.994C111.063 206.019 111.063 206.019 111.087 206.068C111.112 206.117 111.136 206.239 111.161 206.288C113.683 207.17 116.083 207.219 118.704 206.876C118.704 206.509 118.655 205.897 119.096 205.799C119.634 205.701 120.124 205.872 120.638 205.946C121.055 205.994 121.447 206.166 121.863 206.264C121.863 206.264 121.863 206.264 121.887 206.264C122.181 206.337 122.451 206.435 122.745 206.509C123.994 206.827 125.243 207.096 126.541 207.219C126.565 207.219 126.614 207.219 126.639 207.219C127.814 207.243 129.014 207.194 130.19 207.121C130.41 207.096 130.63 207.096 130.851 207.072C131.071 207.047 131.341 207.023 131.561 206.998C131.757 206.974 131.928 206.949 132.124 206.925C133.52 206.729 134.843 206.435 136.165 205.946C136.288 205.897 136.386 205.848 136.459 205.823C136.533 205.799 136.582 205.774 136.631 205.75C136.704 205.725 136.778 205.676 136.827 205.652C136.875 205.627 136.875 205.627 136.924 205.603C136.949 205.578 136.949 205.578 136.998 205.578C137.463 205.333 137.904 205.138 138.173 204.648C138.198 204.599 138.173 204.599 138.198 204.525C138.198 204.452 138.222 204.305 138.222 204.207C138.222 204.183 138.222 204.134 138.222 204.109C138.222 204.085 138.247 204.06 138.222 204.06C138.198 204.06 138.345 204.011 138.173 204.036C138.124 204.06 138.639 203.718 137.953 204.232C137.243 204.721 136.459 205.236 134.965 205.578C132.32 206.141 127.643 206.68 124.9 206.215C122.157 205.75 120.761 204.868 118.189 204.721C115.667 204.501 113.071 204.623 110.597 204.183C110.597 204.183 110.622 204.183 110.597 204.183Z" fill="#232323"/>
<path d="M122.842 196.102C122.989 196.2 123.111 196.273 123.258 196.371C123.013 196.812 122.744 197.252 122.499 197.693C122.45 197.767 122.401 197.791 122.327 197.815C122.254 197.84 122.23 197.815 122.181 197.791C122.083 197.693 122.009 197.62 122.083 197.473C122.303 197.008 122.597 196.567 122.842 196.102Z" fill="#232323"/>
<path d="M123.529 198.306C123.48 198.38 123.431 198.404 123.358 198.404C123.284 198.429 123.235 198.404 123.211 198.38C123.113 198.282 123.039 198.208 123.113 198.061C123.333 197.621 123.627 197.204 123.848 196.764C123.994 196.862 124.117 196.935 124.264 197.033C124.043 197.449 123.774 197.89 123.529 198.306Z" fill="#232323"/>
<path d="M124.558 198.942C124.509 199.015 124.46 199.04 124.387 199.04C124.313 199.04 124.289 199.04 124.24 198.991C124.142 198.893 124.068 198.795 124.166 198.673C124.387 198.256 124.656 197.84 124.901 197.424C125.048 197.522 125.17 197.62 125.317 197.718C125.073 198.134 124.803 198.55 124.558 198.942Z" fill="#232323"/>
<path d="M15.8689 240.783C15.8444 240.832 15.673 240.979 15.673 241.028C15.673 241.101 15.5995 241.15 15.5995 241.199C15.575 241.248 15.575 241.272 15.5505 241.321C15.526 241.37 15.526 241.395 15.5015 241.444C15.477 241.493 15.4525 241.566 15.4281 241.591C15.4036 241.64 15.3791 241.689 15.3791 241.738C15.3546 241.787 15.3546 241.787 15.3546 241.811C15.3301 241.835 15.3301 241.86 15.3301 241.909C15.3056 241.933 15.3056 241.982 15.2811 242.007C15.2811 242.031 15.2811 242.007 15.2566 242.056C15.2321 242.105 15.2076 242.203 15.1832 242.252C15.1587 242.325 15.1097 242.448 15.1097 242.497C15.0852 242.545 15.1097 242.521 15.0852 242.594C15.0607 242.643 15.0362 242.766 15.0117 242.839C16.6036 245.067 18.4648 246.634 20.8894 247.956C20.9873 247.638 21.3547 247.124 21.722 247.271C22.2608 247.467 22.6037 247.907 23.02 248.201C23.4363 248.495 23.6812 248.813 24.0486 249.131C24.0486 249.131 24.0486 249.131 24.0486 249.156C24.269 249.352 24.5139 249.597 24.7588 249.768C25.8364 250.502 27.0119 251.261 28.2364 251.58C29.7793 251.971 31.2242 251.873 32.7181 251.849C33.012 251.849 33.2324 251.825 33.4528 251.825C33.6733 251.825 33.8692 251.825 34.0161 251.825C35.559 251.751 37.0039 251.555 38.4733 251.237C38.5713 251.212 38.5958 251.188 38.6692 251.188C38.7427 251.163 38.8162 251.139 38.8652 251.115C38.9142 251.09 38.9386 251.09 38.9631 251.09C38.9876 251.09 39.0121 251.066 39.0366 251.066C39.5019 250.87 39.9183 250.674 40.3101 250.307C40.3346 250.282 40.3346 250.233 40.3346 250.184C40.3591 250.135 40.3836 249.964 40.3836 249.89C40.3836 249.817 40.4081 249.792 40.3836 249.719C40.3591 249.67 40.4325 249.719 40.4325 249.695C39.6978 248.666 40.7264 248.495 39.0856 247.834C37.6652 247.271 35.559 247.491 33.6977 246.806C31.812 246.12 30.2691 242.301 29.6569 240.685C29.0446 239.093 29.7793 239.852 28.5303 239.901C27.2568 239.95 25.3466 240.905 24.1955 239.877C23.02 238.849 24.416 237.673 23.7792 236.523C23.1425 235.372 23.2404 235.323 21.4282 236.009C19.8363 236.572 16.6526 238.726 15.8689 240.783Z" fill="#444445"/>
<path d="M33.7706 251.776C33.8441 251.776 33.9175 251.751 33.991 251.751C33.991 251.653 33.9665 251.555 33.9665 251.433C33.893 251.433 33.8196 251.457 33.7461 251.457C33.7706 251.555 33.7706 251.678 33.7706 251.776Z" fill="#444445"/>
<path d="M15.9668 240.514C15.9179 240.563 15.8444 240.71 15.7954 240.783C15.7464 240.857 15.6974 240.955 15.673 241.028C15.6485 241.101 15.624 241.15 15.5995 241.199C15.575 241.248 15.575 241.273 15.5505 241.322C15.526 241.395 15.477 241.518 15.4525 241.567C15.4281 241.64 15.4036 241.689 15.3791 241.714C15.3546 241.762 15.3546 241.811 15.3301 241.836C15.3301 241.86 15.3301 241.86 15.3056 241.885C15.3056 241.909 15.3056 241.909 15.2811 241.934C15.2566 241.958 15.2566 241.983 15.2566 242.032C15.2321 242.081 15.2076 242.154 15.1832 242.228C15.1587 242.301 15.1342 242.399 15.1097 242.497C15.1097 242.521 15.1097 242.521 15.0852 242.57C15.0607 242.619 15.0362 242.742 15.0117 242.791C16.6036 245.019 18.4648 246.586 20.8649 247.908C20.9628 247.589 21.3302 247.075 21.6975 247.222C22.2363 247.418 22.5792 247.859 22.9955 248.153C23.4119 248.446 23.6568 248.765 24.0241 249.083C24.0241 249.083 24.0241 249.083 24.0241 249.107C24.2445 249.303 24.4894 249.548 24.7343 249.719C25.8119 250.454 26.9874 251.213 28.2119 251.531C29.7548 251.923 31.1997 251.825 32.6936 251.8C32.9875 251.8 33.2079 251.776 33.4283 251.776C33.6488 251.776 33.8447 251.776 33.9916 251.776C35.5345 251.703 36.9794 251.507 38.4488 251.188C38.5468 251.164 38.5713 251.139 38.6448 251.139C38.7182 251.115 38.7917 251.09 38.8407 251.066C38.8897 251.042 38.9141 251.042 38.9386 251.042C38.9631 251.042 38.9876 251.017 39.0121 251.017C39.4774 250.821 39.8938 250.625 40.2856 250.258C40.3101 250.234 40.3101 250.185 40.3101 250.136C40.3346 250.087 40.3591 249.915 40.3591 249.842C40.3591 249.793 40.3591 249.768 40.3591 249.719C40.3591 249.695 40.3591 249.67 40.3591 249.646C40.3591 249.524 40.3591 249.401 40.3591 249.279C40.2856 249.303 40.2856 249.352 40.1876 249.401C39.1101 249.866 38.3999 250.209 37.1264 250.356C34.9222 250.601 32.2038 250.87 29.9752 250.821C28.8977 250.797 27.6976 250.258 26.9874 249.915C25.4445 249.156 24.2935 248.006 23.2894 247.051C22.4812 246.292 22.4078 246.023 21.6486 245.41C21.3792 245.19 21.2322 245.141 20.8894 244.872C19.1995 243.623 17.5342 242.105 16.0403 240.563C16.0158 240.563 16.0158 240.465 15.9668 240.514Z" fill="black"/>
<path d="M15.7955 240.783C15.722 240.857 15.6975 240.93 15.673 241.028C15.673 241.028 15.673 241.028 15.673 241.053C15.673 241.077 15.624 241.175 15.5996 241.2C15.5751 241.249 15.5751 241.273 15.5506 241.322C15.5261 241.371 15.5261 241.395 15.5016 241.444C15.4771 241.493 15.4526 241.567 15.4281 241.591C15.4036 241.64 15.3791 241.689 15.3791 241.738C15.3547 241.763 15.3547 241.787 15.3547 241.812C15.3547 241.836 15.3302 241.861 15.3302 241.861C15.3302 241.885 15.3302 241.885 15.3057 241.91C15.3057 241.934 15.3057 241.934 15.2812 241.959C15.2812 241.983 15.2567 242.007 15.2567 242.032C15.2567 242.056 15.2567 242.032 15.2322 242.081C15.2077 242.13 15.1832 242.228 15.1587 242.277C15.1342 242.35 15.0853 242.473 15.0853 242.522C15.0608 242.571 15.0853 242.546 15.0608 242.62C15.0363 242.669 15.0118 242.791 14.9873 242.864C16.5792 245.092 18.4404 246.659 20.8405 247.981C21.0364 247.663 21.2568 247.149 21.6976 247.296C22.2119 247.492 22.5548 247.908 22.9956 248.251C23.3385 248.52 23.6568 248.863 23.9752 249.157C23.9752 249.157 23.9752 249.157 23.9997 249.181C24.2446 249.377 24.465 249.622 24.7099 249.793C25.812 250.577 26.963 251.189 28.2365 251.654C28.261 251.654 28.31 251.678 28.3345 251.678C29.559 251.899 30.7835 251.972 32.0325 251.923C32.2529 251.923 32.4978 251.874 32.7182 251.85C32.9386 251.825 33.2325 251.825 33.4284 251.825C33.6488 251.825 33.8203 251.825 33.9917 251.825C35.3876 251.752 36.7346 251.58 38.1061 251.311C38.2285 251.287 38.3265 251.262 38.4244 251.238C38.5224 251.213 38.5469 251.189 38.6203 251.189C38.6938 251.164 38.7673 251.14 38.8163 251.115C38.8652 251.091 38.8652 251.091 38.9142 251.091C38.9387 251.066 38.9632 251.066 38.9877 251.066C39.4775 250.895 39.8938 250.723 40.2367 250.332C40.2612 250.307 40.2612 250.258 40.2612 250.209C40.2857 250.16 40.3102 249.989 40.3102 249.94C40.3102 249.891 40.3102 249.867 40.3102 249.818C40.3102 249.769 40.3347 249.793 40.3102 249.744C40.2857 249.72 40.4326 249.744 40.2857 249.695C40.2367 249.671 40.702 249.548 39.9183 249.915C39.1346 250.283 38.302 250.65 36.8081 250.772C34.1631 250.993 29.559 251.433 27.012 250.209C24.465 248.985 23.5589 247.271 21.4527 245.729C19.4935 244.26 17.5833 242.546 15.7955 240.783Z" fill="#232323"/>
<path d="M30.1467 241.002C30.1957 241.124 30.2447 241.247 30.2692 241.394C29.8283 241.639 29.363 241.883 28.9467 242.104C28.8732 242.153 28.8242 242.153 28.7508 242.128C28.6773 242.104 28.6528 242.079 28.6528 242.03C28.6283 241.883 28.6528 241.81 28.7997 241.737C29.2406 241.492 29.7059 241.247 30.1467 241.002Z" fill="#232323"/>
<path d="M29.3154 243.011C29.2419 243.06 29.1929 243.06 29.1194 243.035C29.046 243.011 29.0215 243.011 29.0215 242.938C29.0215 242.791 29.0215 242.717 29.1439 242.644C29.5603 242.399 30.0256 242.179 30.4419 241.934C30.4909 242.056 30.5399 242.179 30.5644 242.301C30.1725 242.546 29.7317 242.791 29.3154 243.011Z" fill="#232323"/>
<path d="M29.7057 243.941C29.6323 243.99 29.5833 243.99 29.5098 243.965C29.4363 243.941 29.4119 243.941 29.4119 243.867C29.3874 243.72 29.4119 243.647 29.5343 243.573C29.9262 243.329 30.367 243.084 30.7833 242.863C30.8323 242.986 30.8813 243.108 30.9303 243.231C30.5384 243.451 30.0976 243.696 29.7057 243.941Z" fill="#232323"/>
<path opacity="0.07" d="M77.3161 259H15.6743C11.4375 259 7.98438 255.548 7.98438 251.313C7.98438 247.077 11.4375 243.625 15.6743 243.625H77.3161C81.5529 243.625 85.006 247.077 85.006 251.313C85.006 255.573 81.5774 259 77.3161 259Z" fill="#6457A4"/>
<path opacity="0.39" d="M88.1405 163.711L87.6017 163.932C87.6017 163.932 86.0588 164.764 84.7119 165.474C85.4466 164.495 85.8874 163.32 85.9364 162.047L87.3078 134.479L87.6017 128.554L88.1405 163.711Z" fill="#C9BDA3"/>
<path d="M87.4051 132.618L87.3071 134.478L85.9357 162.046C85.8622 163.295 85.4214 164.495 84.7112 165.474C84.1234 166.257 83.3642 166.894 82.4826 167.335C76.6049 170.175 70.6048 172.745 65.8782 174.679C63.4782 175.659 61.421 176.467 59.8781 177.054C58.6291 177.519 57.3801 176.393 57.723 175.12L67.519 137.857L68.0578 135.776C68.1313 135.507 67.8129 135.335 67.617 135.507L41.29 158.496L40.3349 158.104L36.0981 156.342C35.7307 156.195 35.4858 155.926 35.3389 155.607C35.143 155.142 35.1675 154.579 35.5103 154.138L64.6537 116.532C65.7068 115.186 67.2007 114.231 68.866 113.864L75.7478 112.346L85.2255 125.297C86.7439 127.403 87.5275 129.974 87.4051 132.618Z" fill="#6457A4"/>
<path d="M87.4043 132.618L87.3064 134.478L68.8652 113.864L75.747 112.346L85.2247 125.297C86.7431 127.403 87.5268 129.974 87.4043 132.618Z" fill="#4E4688"/>
<path opacity="0.2" d="M67.4952 137.809L65.8544 174.656C63.4543 175.635 61.3972 176.443 59.8543 177.03C58.6053 177.496 57.3563 176.369 57.6992 175.096L67.4952 137.809Z" fill="black"/>
<path opacity="0.2" d="M119.611 114.355C113.709 117.611 107.929 121.063 104.868 122.924C103.3 123.878 102.174 125.396 101.757 127.184C98.99 139.156 104.378 151.055 104.378 151.055C104.378 151.055 103.521 152.45 102.174 154.115C99.0389 150.859 98.4512 140.405 98.4512 133.06C98.4512 128.457 100.998 124.221 105.088 122.042L119.611 114.355Z" fill="black"/>
<path d="M91.1764 162.463C91.0784 163.491 90.9315 164.52 90.76 165.548C90.5886 166.576 90.3682 167.58 90.1233 168.608C89.8539 169.612 89.5845 170.616 89.2172 171.595C88.8498 172.574 88.4335 173.529 87.8457 174.386C87.9682 174.141 88.0661 173.921 88.1886 173.701C88.2865 173.456 88.3845 173.236 88.4824 172.991C88.5804 172.746 88.6784 172.501 88.7518 172.256C88.8498 172.011 88.9233 171.767 88.9967 171.522C89.1682 171.032 89.3151 170.542 89.4621 170.053C89.5845 169.563 89.7314 169.049 89.8539 168.559C90.1233 167.555 90.3437 166.552 90.5396 165.523C90.6376 165.009 90.76 164.52 90.858 164.005C90.9804 163.491 91.0784 162.977 91.1764 162.463Z" fill="#231F20"/>
<path opacity="0.4" d="M115.129 164.25L90.9082 172.281C88.4102 173.333 86.5 175.414 85.5939 177.961L77.3896 199.187C77.4876 198.747 83.904 169.71 91.2021 168.926C98.5492 168.167 115.129 164.25 115.129 164.25Z" fill="black"/>
<path opacity="0.2" d="M117.014 191.818L113.145 192.724L115.128 164.25L117.014 191.818Z" fill="black"/>
<path opacity="0.2" d="M70.7525 210.425L70.4096 210.768C70.3117 210.841 70.1892 210.915 70.0913 210.988L36.0009 234.663L31.9355 233.17L70.7525 210.425Z" fill="black"/>
<path d="M92.5974 108.576C89.0708 109.507 86.8177 108.992 85.4463 108.282C85.7647 107.499 85.9851 106.74 86.1075 106.177C86.7688 106.813 87.5524 107.303 88.4096 107.646C88.777 107.793 89.1688 107.891 89.5606 107.964C89.977 108.038 90.4178 108.087 90.8586 108.087C91.3974 108.087 91.9117 108.013 92.426 107.915C92.4995 108.136 92.5484 108.356 92.5974 108.576Z" fill="#F16B6C"/>
<path d="M40.3107 158.056C39.7229 158.791 39.2576 159.647 38.9392 160.529L38.3515 162.218C38.0086 161.435 37.5923 160.676 37.1025 159.941C36.4902 158.962 34.6534 157.248 35.0208 155.951C35.0698 155.779 35.1677 155.632 35.2902 155.534C35.4371 155.853 35.682 156.122 36.0494 156.269L40.3107 158.056Z" fill="#F16B6C"/>
<path opacity="0.35" d="M79.3483 98.4886L79.6911 99.7862C80.0095 100.937 80.8422 101.892 81.9442 102.332L82.3606 102.479C82.7279 103.728 83.4137 104.854 84.2953 105.736L96.7608 102.137C96.8098 102.259 96.9812 102.283 97.1037 102.234C97.2261 102.161 97.2751 102.039 97.3241 101.916C97.3731 101.794 97.4221 101.671 97.471 101.549C97.5935 100.839 97.618 100.08 97.52 99.3455L97.1772 96.432L96.8833 94.0572C96.7608 93.0289 96.4424 92.074 95.9771 91.2416C94.4832 88.5485 91.4954 86.9081 88.2627 87.2999C85.5688 87.6181 83.3647 89.283 82.2381 91.5354C81.7483 92.5147 81.4544 93.6165 81.4299 94.7672C81.4299 94.7916 81.4299 94.8406 81.4299 94.8651V94.9875C81.4299 95.3058 81.4544 95.5996 81.4789 95.9179L81.6014 96.9951L81.6259 97.1665L80.6708 97.0196C79.8136 96.8972 79.1279 97.6806 79.3483 98.4886Z" fill="black"/>
<path opacity="0.19" d="M98.8919 89.3566C98.8919 89.3812 98.8672 89.4306 98.8672 89.4553C98.8919 89.4306 98.8919 89.4059 98.8919 89.3566Z" fill="white"/>
<path d="M96.7351 93.3716C96.0983 93.5675 95.4616 93.7144 94.8248 93.8123C94.7024 93.8368 94.5799 93.8368 94.482 93.8613C93.086 94.0327 91.6411 94.0082 90.2452 93.9103C89.0452 93.8368 87.8206 93.6899 86.6941 93.2492C84.539 92.3923 83.8043 93.3961 83.143 95.3547C82.8981 96.0892 82.4818 96.6034 82.0655 97.093L81.6246 97.1665L81.6001 96.9951L81.5512 96.6034L81.4777 95.8934C81.4287 95.5751 81.4287 95.2568 81.4287 94.963V94.8406C81.4287 94.8161 81.4287 94.7672 81.4287 94.7427C81.4532 93.592 81.7471 92.4902 82.2369 91.4864C83.3634 89.234 85.5676 87.5692 88.2615 87.2509C91.2248 86.8837 94.0167 88.2792 95.6085 90.5806C95.633 90.6295 95.6575 90.6785 95.7065 90.703C95.8044 90.8499 95.9024 91.0213 96.0004 91.1926C96.3187 91.9027 96.5881 92.6127 96.7351 93.3716Z" fill="#F97C15"/>
<path d="M82.0434 97.0941C81.7495 97.4368 81.4801 97.8041 81.2352 98.2448C80.8434 99.0037 81.3822 100.767 82.1659 102.431L81.921 102.333C81.1618 102.04 80.525 101.477 80.0842 100.791C79.8883 100.473 79.7413 100.154 79.6434 99.7872L79.3005 98.4896C79.0801 97.6817 79.7658 96.8982 80.5985 97.0206L81.5536 97.1675" fill="#F28389"/>
<path d="M102.003 88.2307C101.88 88.5734 101.733 88.9162 101.562 89.259C100.582 91.1931 98.868 92.6866 96.7373 93.3721C96.5659 92.6131 96.2965 91.9031 95.9536 91.2421C95.8557 91.0707 95.7577 90.9238 95.6598 90.7524C95.6353 90.7035 95.6108 90.6545 95.5618 90.63C93.97 88.3286 91.2026 86.9331 88.2148 87.3003C85.5208 87.6186 83.3167 89.2834 82.1902 91.5359C81.7004 92.5152 81.4065 93.6169 81.382 94.7921C81.382 94.8166 81.382 94.8656 81.382 94.89V95.0124C81.382 95.3307 81.4065 95.6245 81.431 95.9428L81.5044 96.6528L81.5534 97.0445L81.5779 97.2159L81.1861 97.1669L80.6228 97.069C79.9616 96.9711 79.3983 97.4363 79.3003 98.0483C79.2758 98.1952 79.2758 98.3666 79.3248 98.538L79.6677 99.8356C79.7656 100.203 79.9126 100.521 80.1085 100.839C80.5248 101.525 81.1616 102.064 81.9453 102.382L82.1902 102.48C82.3371 102.798 82.5085 103.141 82.68 103.459C82.9983 104.047 83.3657 104.732 83.831 105.222C84.0269 105.442 84.5657 106.103 84.7861 106.201C82.2392 105.001 79.8391 103.337 78.1983 101.084C78.1003 100.962 78.0268 100.839 77.9289 100.717C76.2635 98.2687 75.5533 95.0614 76.5084 92.2459C76.7289 91.5848 77.0717 90.9238 77.5615 90.4097C78.4432 89.4793 79.7656 89.0631 81.0146 88.7203C80.3289 87.5452 80.8432 86.0272 81.6759 84.9744C83.4637 82.6975 86.7209 81.7182 89.4638 82.6486C90.2474 82.9179 90.9087 83.1382 91.5699 82.5261C92.6965 81.4734 93.3822 80.0534 94.5332 79.0251C95.8802 77.8009 97.7169 77.6051 99.3578 78.413C102.762 80.0289 103.105 85.0479 102.003 88.2307Z" fill="#F97C15"/>
<path d="M97.4461 101.574C97.0543 103.9 95.6338 105.908 93.6012 107.058C93.4297 107.156 93.2583 107.254 93.0869 107.328C92.5481 107.572 91.9848 107.768 91.3725 107.891C91.2746 107.915 91.1766 107.94 91.0787 107.94C90.9562 107.964 90.8582 107.964 90.7358 107.989C89.9766 108.086 89.2664 108.062 88.5562 107.94C87.7725 107.817 87.0133 107.572 86.3276 107.205C85.8133 106.936 85.3235 106.618 84.8582 106.25C84.6622 106.103 84.4663 105.932 84.2949 105.736C83.6336 105.075 83.0704 104.267 82.6785 103.361C82.5561 103.067 82.4336 102.774 82.3602 102.455L82.1887 102.382C81.3805 100.717 80.8663 98.9543 81.2581 98.1954C81.6989 97.363 82.3112 96.8243 82.7765 96.0654C82.9234 95.8205 83.0459 95.5757 83.1438 95.2819C83.8051 93.3233 84.5398 92.3195 86.6949 93.1764C87.8215 93.6171 89.046 93.764 90.246 93.8374C91.7644 93.9353 93.3318 93.9598 94.8501 93.7395C94.9971 93.715 95.1195 93.6905 95.2665 93.666C95.3889 93.6415 95.4869 93.6171 95.6093 93.5926C95.6828 93.5926 95.7318 93.5681 95.8053 93.5436C95.8298 93.5436 95.8542 93.5436 95.8787 93.5191C95.9277 93.5191 95.9767 93.4946 96.0257 93.4702C96.0502 93.4702 96.0991 93.4457 96.1236 93.4457C96.1726 93.4212 96.2216 93.4212 96.2951 93.3967C96.3196 93.3967 96.3685 93.3722 96.393 93.3722C96.442 93.3477 96.491 93.3477 96.54 93.3233C96.6134 93.2988 96.7114 93.2743 96.7849 93.2498C96.8339 93.4702 96.8828 93.715 96.9073 93.9598L97.0298 94.9391L97.0543 95.2329L97.0788 95.4533L97.1032 95.6491L97.1522 96.1388L97.1767 96.3347L97.5196 99.2481C97.5931 100.105 97.5686 100.864 97.4461 101.574Z" fill="#F28389"/>
<path d="M94.8271 93.8118C94.9741 93.7874 95.0965 93.7629 95.2434 93.7384C95.0965 93.7629 94.9496 93.7874 94.8271 93.8118Z" fill="#FF8500"/>
<path d="M101.561 89.2589C101.169 90.7524 99.5772 92.6131 99.0384 93.2007C98.3282 94.0086 97.5935 94.841 97.0547 95.7469L97.0302 95.551L96.8588 94.0576C96.8343 93.8127 96.7853 93.5924 96.7363 93.3476C98.867 92.6865 100.581 91.2175 101.561 89.2589Z" fill="#EA6400"/>
<path d="M84.7612 106.153C82.2142 104.953 79.8142 103.288 78.1733 101.036C78.1488 100.62 78.1488 100.204 78.1978 99.7874C78.2713 99.1998 78.4427 98.5632 78.908 98.2205C79.0305 98.1225 79.1774 98.0736 79.3244 98.0001C79.2999 98.147 79.2999 98.3184 79.3488 98.4898L79.6917 99.7874C79.7897 100.155 79.9366 100.473 80.1325 100.791C80.5489 101.477 81.1856 102.015 81.9693 102.334L82.2142 102.432C82.3612 102.75 82.5326 103.093 82.704 103.411C83.0224 103.998 83.3897 104.684 83.8551 105.174C84.0265 105.369 84.5653 106.055 84.7612 106.153Z" fill="#EA6400"/>
<path d="M85.7651 90.923C88.8264 91.0944 91.5448 93.1755 94.4592 93.8365C93.0632 94.0079 91.6183 93.9834 90.2223 93.8855C89.0223 93.812 87.7978 93.6651 86.6713 93.2244C84.5161 92.3675 83.7814 93.3713 83.1202 95.33C82.8753 96.0645 82.459 96.5786 82.0426 97.0683L81.6018 97.1417L81.21 97.0927C81.3324 96.9458 81.4304 96.7745 81.5283 96.6031C81.8222 96.0645 81.9692 95.4034 82.0671 94.7913C82.2385 93.6651 82.361 92.4165 83.1692 91.6575C83.8549 91.0455 84.859 90.8741 85.7651 90.923Z" fill="#EA6400"/>
<path d="M95.4388 94.0093H95.3164L94.7286 93.9848C94.7776 93.9603 94.8266 93.9603 94.8755 93.9358C95.0715 93.8869 95.2674 93.9358 95.4388 94.0093Z" fill="#FF8500"/>
<path d="M96.516 94.0334C96.1732 94.0579 95.8058 94.0334 95.463 94.0089H95.4385L96.516 94.0334Z" fill="#FF8500"/>
<path d="M96.9807 95.0379C94.6541 96.1886 91.7643 96.0172 89.2173 95.3562C87.9683 95.0379 86.6703 94.5972 85.3968 94.8665C84.4417 95.0869 83.6335 95.65 82.7764 96.1152C82.9233 95.8703 83.0458 95.6255 83.1437 95.3317C83.805 93.3731 84.5397 92.3693 86.6948 93.2262C87.8213 93.6669 89.0459 93.8138 90.2459 93.8872C91.7643 93.9851 93.3316 94.0096 94.85 93.7893C94.997 93.7648 95.1194 93.7403 95.2664 93.7158C95.3888 93.6913 95.4868 93.6669 95.6092 93.6424C95.6827 93.6424 95.7317 93.6179 95.8052 93.5934C95.8296 93.5934 95.8541 93.5934 95.8786 93.5689C95.9276 93.5689 95.9766 93.5445 96.0256 93.52C96.0501 93.52 96.099 93.4955 96.1235 93.4955C96.1725 93.471 96.2215 93.471 96.295 93.4465C96.3195 93.4465 96.3684 93.422 96.3929 93.422C96.4419 93.3976 96.4909 93.3976 96.5399 93.3731C96.6133 93.3486 96.7113 93.3241 96.7848 93.2996C96.8337 93.52 96.8827 93.7648 96.9072 94.0096L96.9807 95.0379Z" fill="#F16B6C"/>
<path d="M313.009 125.224C312.788 125.298 312.543 125.347 312.299 125.396C312.201 125.42 312.103 125.42 312.005 125.445H285.261C275.122 124.319 266.012 122.311 262.951 120.45C260.33 118.859 258.396 116.998 257.122 115.064C254.796 111.514 254.673 107.768 256.412 105.075C256.73 104.561 257.073 104.071 257.441 103.581C257.539 103.459 257.612 103.337 257.71 103.214C257.808 103.092 257.881 102.969 257.979 102.847C258.567 102.064 259.155 101.378 259.743 100.766C259.841 100.668 259.963 100.546 260.061 100.448C260.11 100.399 260.159 100.35 260.232 100.301C260.379 100.154 260.526 100.031 260.673 99.8846C260.747 99.8111 260.82 99.7621 260.894 99.6887C260.967 99.6397 261.016 99.5663 261.09 99.5173C261.114 99.4928 261.139 99.4683 261.163 99.4439C262.167 98.587 263.269 97.779 264.616 96.8487C265.473 94.7921 266.404 92.6866 267.457 90.581C268.069 89.3569 268.731 88.1083 269.416 86.9086C269.441 86.8841 269.465 86.8351 269.465 86.8107C269.539 86.6882 269.588 86.5658 269.661 86.4679C269.661 86.4434 269.686 86.4434 269.686 86.4189C269.808 86.1986 269.931 86.0027 270.053 85.7824C270.077 85.7579 270.078 85.7334 270.102 85.7089C270.249 85.4886 270.371 85.2682 270.518 85.0234C270.543 84.9744 270.592 84.9255 270.616 84.8765C273.408 80.4206 276.788 76.5033 280.902 74.2264C280.927 74.2264 280.927 74.2019 280.951 74.2019C281.074 74.1285 281.196 74.0795 281.318 74.0061C281.416 73.9571 281.514 73.9081 281.612 73.8592C281.759 73.7857 281.931 73.7123 282.078 73.6388C282.102 73.6388 282.127 73.6143 282.151 73.6143C282.176 73.6143 282.2 73.5899 282.225 73.5899C284.404 72.5861 286.314 71.9985 287.98 71.6312C287.98 71.6312 287.98 71.6312 288.004 71.6312C288.078 71.6067 288.151 71.6067 288.225 71.5823L289.474 71.3129L290.282 71.3619L290.11 66.7591C290.086 66.0246 290.135 65.3146 290.233 64.6046C290.674 61.8625 291.898 55.0318 293.686 54.0525C295.033 53.318 296.331 53.4649 297.311 54.3952C297.433 54.5421 297.555 54.6645 297.678 54.8114C298.143 55.399 298.486 56.207 298.682 57.1863C299.294 60.3201 301.131 61.4218 303.751 61.8136C305.319 62.0584 305.711 60.8098 306.274 59.4877C306.641 58.5818 307.107 57.6515 308.013 57.1128C310.29 55.7173 311.466 59.757 313.45 60.418C314.943 60.9077 307.009 67.3222 302.992 70.4805C302.919 70.4805 302.845 70.4805 302.772 70.4805C302.086 70.4805 301.449 70.7743 300.837 71.0926C300.813 71.0926 300.813 71.0681 300.788 71.0681C300.641 71.0191 300.519 70.9947 300.396 70.9947C299.172 70.3826 297.604 70.3091 296.649 71.4598C296.551 71.5823 296.478 71.7047 296.404 71.8271C296.38 71.876 296.355 71.925 296.331 71.974C296.135 72.4392 296.111 72.9778 296.331 73.443C296.625 74.104 297.262 74.5937 298.021 74.5937C298.584 74.5937 299.025 74.3243 299.343 73.9081C299.245 74.3243 299.123 74.7406 299.025 75.1568C298.755 76.2095 298.535 77.2868 298.364 78.364C298.29 78.9027 298.192 79.4413 298.143 79.9799C298.119 80.2492 298.07 80.5185 298.045 80.8123C298.021 81.1306 298.021 81.4244 298.021 81.7427C298.021 82.2568 297.923 82.7954 297.898 83.3341C297.849 83.9217 297.849 84.4848 297.849 85.0724C297.849 85.4151 298.217 85.6355 298.511 85.6355C298.804 85.6355 299.147 85.3906 299.172 85.0724C299.221 84.5093 299.245 83.9706 299.294 83.4075C299.319 82.8934 299.319 82.3548 299.392 81.8406C299.417 81.6937 299.466 81.5713 299.49 81.4489C299.515 81.302 299.515 81.1796 299.539 81.0327C299.564 80.7634 299.588 80.4696 299.613 80.2003C299.662 79.6616 299.735 79.123 299.809 78.5844C299.955 77.5071 300.078 76.4054 300.225 75.3281C300.323 74.6181 300.445 73.9326 300.568 73.2471C300.739 73.8102 300.911 74.3488 301.058 74.9119C301.449 76.4788 301.694 78.0947 301.743 79.7106C301.792 81.2775 301.547 82.8689 301.376 84.4358C301.327 84.7541 301.547 85.0479 301.841 85.1458C302.135 85.2193 302.502 85.0724 302.6 84.7786C302.943 83.7258 303.066 82.6241 303.139 81.5223C303.237 79.8085 303.09 78.0947 302.723 76.4054C302.527 75.524 302.282 74.6671 301.939 73.8102C302.16 73.9081 302.38 74.0061 302.625 74.0795C303.115 74.2019 303.629 74.1774 304.07 73.9571C313.278 79.0985 316.682 90.0179 318.446 99.7621C318.837 101.99 319.425 104.928 319.768 108.013C320.503 115.211 320.037 123.241 313.009 125.224Z" fill="white"/>
<path opacity="0.3" d="M313.009 125.224C312.788 125.298 312.543 125.347 312.299 125.396C312.201 125.42 312.103 125.42 312.005 125.445H285.261C275.122 124.319 266.012 122.311 262.951 120.45C260.33 118.859 258.396 116.998 257.122 115.064C254.796 111.514 254.673 107.768 256.412 105.075C256.73 104.561 257.073 104.071 257.441 103.581C257.539 103.459 257.612 103.337 257.71 103.214C257.808 103.092 257.881 102.969 257.979 102.847C258.567 102.064 259.155 101.378 259.743 100.766C259.841 100.668 259.963 100.546 260.061 100.448C260.11 100.399 260.159 100.35 260.232 100.301C260.379 100.154 260.526 100.031 260.673 99.8846C260.747 99.8111 260.82 99.7621 260.894 99.6887C260.967 99.6397 261.016 99.5663 261.09 99.5173C261.114 99.4928 261.139 99.4683 261.163 99.4439C262.167 98.587 263.269 97.779 264.616 96.8487C265.473 94.7921 266.404 92.6866 267.457 90.581C268.069 89.3569 268.731 88.1083 269.416 86.9086C269.441 86.8841 269.465 86.8351 269.465 86.8107C269.539 86.6882 269.588 86.5658 269.661 86.4679C269.661 86.4434 269.686 86.4434 269.686 86.4189C269.808 86.1986 269.931 86.0027 270.053 85.7824C270.077 85.7579 270.078 85.7334 270.102 85.7089C270.249 85.4886 270.371 85.2682 270.518 85.0234C270.543 84.9744 270.592 84.9255 270.616 84.8765C273.408 80.4206 276.788 76.5033 280.902 74.2264C280.927 74.2264 280.927 74.2019 280.951 74.2019C281.074 74.1285 281.196 74.0795 281.318 74.0061C281.416 73.9571 281.514 73.9081 281.612 73.8592C281.759 73.7857 281.931 73.7123 282.078 73.6388C282.102 73.6388 282.127 73.6143 282.151 73.6143C282.176 73.6143 282.2 73.5899 282.225 73.5899C284.404 72.5861 286.314 71.9985 287.98 71.6312C287.98 71.6312 287.98 71.6312 288.004 71.6312C288.078 71.6067 288.151 71.6067 288.225 71.5823L289.474 71.3129L290.282 71.3619L290.11 66.7591C290.086 66.0246 290.135 65.3146 290.233 64.6046C290.674 61.8625 291.898 55.0318 293.686 54.0525C295.033 53.318 296.331 53.4649 297.311 54.3952C297.433 54.5421 297.555 54.6645 297.678 54.8114C298.143 55.399 298.486 56.207 298.682 57.1863C299.294 60.3201 301.131 61.4218 303.751 61.8136C305.319 62.0584 305.711 60.8098 306.274 59.4877C306.641 58.5818 307.107 57.6515 308.013 57.1128C310.29 55.7173 311.466 59.757 313.45 60.418C314.943 60.9077 307.009 67.3222 302.992 70.4805C302.919 70.4805 302.845 70.4805 302.772 70.4805C302.086 70.4805 301.449 70.7743 300.837 71.0926C300.813 71.0926 300.813 71.0681 300.788 71.0681C300.641 71.0191 300.519 70.9947 300.396 70.9947C299.172 70.3826 297.604 70.3091 296.649 71.4598C296.551 71.5823 296.478 71.7047 296.404 71.8271C296.38 71.876 296.355 71.925 296.331 71.974C296.135 72.4392 296.111 72.9778 296.331 73.443C296.625 74.104 297.262 74.5937 298.021 74.5937C298.584 74.5937 299.025 74.3243 299.343 73.9081C299.245 74.3243 299.123 74.7406 299.025 75.1568C298.755 76.2095 298.535 77.2868 298.364 78.364C298.29 78.9027 298.192 79.4413 298.143 79.9799C298.119 80.2492 298.07 80.5185 298.045 80.8123C298.021 81.1306 298.021 81.4244 298.021 81.7427C298.021 82.2568 297.923 82.7954 297.898 83.3341C297.849 83.9217 297.849 84.4848 297.849 85.0724C297.849 85.4151 298.217 85.6355 298.511 85.6355C298.804 85.6355 299.147 85.3906 299.172 85.0724C299.221 84.5093 299.245 83.9706 299.294 83.4075C299.319 82.8934 299.319 82.3548 299.392 81.8406C299.417 81.6937 299.466 81.5713 299.49 81.4489C299.515 81.302 299.515 81.1796 299.539 81.0327C299.564 80.7634 299.588 80.4696 299.613 80.2003C299.662 79.6616 299.735 79.123 299.809 78.5844C299.955 77.5071 300.078 76.4054 300.225 75.3281C300.323 74.6181 300.445 73.9326 300.568 73.2471C300.739 73.8102 300.911 74.3488 301.058 74.9119C301.449 76.4788 301.694 78.0947 301.743 79.7106C301.792 81.2775 301.547 82.8689 301.376 84.4358C301.327 84.7541 301.547 85.0479 301.841 85.1458C302.135 85.2193 302.502 85.0724 302.6 84.7786C302.943 83.7258 303.066 82.6241 303.139 81.5223C303.237 79.8085 303.09 78.0947 302.723 76.4054C302.527 75.524 302.282 74.6671 301.939 73.8102C302.16 73.9081 302.38 74.0061 302.625 74.0795C303.115 74.2019 303.629 74.1774 304.07 73.9571C313.278 79.0985 316.682 90.0179 318.446 99.7621C318.837 101.99 319.425 104.928 319.768 108.013C320.503 115.211 320.037 123.241 313.009 125.224Z" fill="#FCB713"/>
<path opacity="0.8" d="M306.249 59.4869C305.686 60.809 305.294 62.0576 303.727 61.8128C301.106 61.4211 299.27 60.3438 298.682 57.1855C298.486 56.1817 298.143 55.3983 297.678 54.8107C301.278 58.7279 304.364 59.5114 306.249 59.4869Z" fill="#FCB713"/>
<path opacity="0.5" d="M318.519 119.618C318.225 121.797 316.315 123.437 314.307 124.367C308.576 127.061 302.356 125.445 296.307 125.445C292.707 125.445 288.837 125.836 285.237 125.445C275.098 124.318 265.988 122.311 262.926 120.45C260.306 118.859 258.371 116.998 257.098 115.064C254.771 111.514 254.649 107.768 256.388 105.075C257.71 103.043 259.204 101.109 261.041 99.5172C265.4 95.7713 267.041 90.7768 269.931 85.9537C272.869 81.0326 276.714 76.1115 282.029 73.6387C282.053 73.6387 282.078 73.6143 282.102 73.6143C282.127 73.6143 282.151 73.5898 282.176 73.5898C282.886 73.296 285.629 72.2432 287.931 71.6311C287.931 71.6311 287.931 71.6311 287.955 71.6311C288.029 71.6067 288.102 71.5822 288.176 71.5822C288.617 71.4598 289.033 71.3863 289.425 71.3129C289.719 71.2639 289.988 71.2394 290.233 71.2149C290.723 71.1904 291.09 71.2394 291.262 71.4353C291.311 71.4842 291.335 71.5577 291.335 71.6556C291.335 71.7046 291.335 71.7291 291.335 71.778C291.237 72.4146 290.209 73.3939 289.841 73.957C288.347 76.2584 287.025 78.6822 285.923 81.1795C284.208 85.0233 282.959 89.1364 282.421 93.2985C282.029 96.4568 281.049 99.5662 279.531 102.382C278.478 104.34 276.47 105.516 275.612 107.597C273.874 111.783 278.11 113.252 281 114.844C283.89 116.435 286.829 117.904 289.964 118.908C294.519 120.352 299.294 121.038 304.046 121.087C305.319 121.111 318.495 119.887 318.519 119.618Z" fill="#FCB713"/>
<g opacity="0.8">
<path opacity="0.8" d="M293.345 109.263C292.659 109.043 292.096 108.774 291.581 108.455C291.092 108.137 290.675 107.843 290.308 107.549C289.965 107.256 289.671 106.962 289.475 106.692C289.279 106.423 289.132 106.227 289.034 106.105C288.936 105.958 288.887 105.836 288.887 105.713C288.863 105.591 288.936 105.468 289.108 105.321L290.479 104.073C290.626 103.926 290.773 103.877 290.945 103.901C291.116 103.926 291.287 104.097 291.483 104.367C291.777 104.783 292.169 105.175 292.585 105.566C293.026 105.958 293.516 106.252 294.03 106.472L295.304 101.551C294.765 101.159 294.251 100.743 293.761 100.302C293.247 99.8372 292.806 99.3476 292.438 98.7845C292.071 98.2214 291.802 97.6093 291.655 96.9483C291.508 96.2627 291.532 95.5282 291.753 94.6713C291.9 94.0593 292.145 93.5206 292.487 93.031C292.83 92.5413 293.247 92.1251 293.761 91.8068C294.275 91.4886 294.888 91.2682 295.598 91.1458C296.308 91.0234 297.092 91.0479 297.973 91.1948L298.169 90.3868C298.194 90.2644 298.267 90.142 298.39 90.093C298.512 90.0196 298.635 90.0196 298.757 90.0441L299.075 90.1175C299.198 90.142 299.32 90.2399 299.369 90.3379C299.443 90.4603 299.443 90.5827 299.418 90.7051L299.198 91.5375C299.737 91.7334 300.226 91.9537 300.692 92.223C301.157 92.4924 301.549 92.7617 301.892 93.031C302.235 93.3003 302.504 93.5696 302.724 93.79C302.945 94.0103 303.092 94.1817 303.19 94.3041C303.312 94.4265 303.361 94.5734 303.337 94.7448C303.312 94.9162 303.239 95.0631 303.141 95.1855L301.745 96.3851C301.451 96.63 301.206 96.63 300.986 96.4096C300.692 96.0914 300.349 95.7241 299.933 95.3324C299.516 94.9407 299.026 94.5979 298.488 94.3041L297.288 98.9069C297.777 99.2741 298.292 99.7148 298.83 100.18C299.369 100.645 299.835 101.184 300.226 101.771C300.618 102.359 300.912 102.996 301.108 103.706C301.304 104.416 301.28 105.175 301.059 105.982C300.692 107.354 299.957 108.382 298.83 109.067C297.704 109.753 296.259 109.924 294.545 109.581L293.859 112.201C293.834 112.324 293.736 112.421 293.614 112.495C293.492 112.544 293.369 112.568 293.222 112.519C293.075 112.47 292.904 112.421 292.732 112.324C292.561 112.226 292.512 112.079 292.561 111.858L293.345 109.263ZM297.288 93.9858C296.626 93.9124 296.088 93.9858 295.696 94.2551C295.279 94.5 295.034 94.8672 294.888 95.3569C294.765 95.871 294.814 96.3117 295.034 96.7279C295.279 97.1441 295.671 97.5848 296.21 98.099L297.288 93.9858ZM295.328 106.864C295.916 106.937 296.43 106.888 296.871 106.668C297.312 106.448 297.606 106.08 297.753 105.493C297.875 105.003 297.851 104.513 297.655 103.999C297.459 103.485 297.067 102.971 296.479 102.432L295.328 106.864Z" fill="#FCB713"/>
</g>
<path opacity="0.8" d="M304.682 71.4854C304.315 70.8489 303.678 70.5061 302.968 70.4572C302.894 70.4572 302.821 70.4572 302.747 70.4572C302.062 70.4572 301.425 70.7509 300.813 71.0692C300.788 71.0692 300.788 71.0447 300.764 71.0447C300.617 70.9958 300.494 70.9713 300.372 70.9713C299.147 70.3592 297.58 70.2858 296.625 71.4365C296.527 71.5589 296.454 71.6813 296.38 71.8037C296.356 71.8527 296.331 71.9016 296.307 71.9506C296.111 72.4158 296.086 72.9544 296.307 73.4196C296.601 74.0806 297.237 74.5703 297.996 74.5703C298.56 74.5703 299.001 74.301 299.319 73.8848C299.221 74.301 299.099 74.7172 299.001 75.1334C298.731 76.1862 298.511 77.2634 298.339 78.3407C298.266 78.8793 298.168 79.4179 298.119 79.9565C298.094 80.2259 298.045 80.4952 298.021 80.789C297.996 81.1072 297.996 81.401 297.996 81.7193C297.996 82.2335 297.899 82.7721 297.874 83.3107C297.825 83.8983 297.825 84.4614 297.825 85.049C297.825 85.3918 298.192 85.6121 298.486 85.6121C298.78 85.6121 299.123 85.3673 299.147 85.049C299.196 84.4859 299.221 83.9473 299.27 83.3842C299.294 82.87 299.294 82.3314 299.368 81.8173C299.392 81.6704 299.441 81.5479 299.466 81.4255C299.49 81.2786 299.49 81.1562 299.515 81.0093C299.539 80.74 299.564 80.4462 299.588 80.1769C299.637 79.6383 299.711 79.0996 299.784 78.561C299.931 77.4838 300.054 76.382 300.201 75.3048C300.299 74.5948 300.421 73.9093 300.543 73.2237C300.715 73.7868 300.886 74.3255 301.033 74.8886C301.425 76.4555 301.67 78.0714 301.719 79.6872C301.768 81.2541 301.523 82.8455 301.352 84.4124C301.303 84.7307 301.523 85.0245 301.817 85.1225C302.111 85.1959 302.478 85.049 302.576 84.7552C302.919 83.7024 303.041 82.6007 303.115 81.499C303.213 79.7852 303.066 78.0714 302.699 76.382C302.503 75.5006 302.258 74.6437 301.915 73.7868C302.135 73.8848 302.356 73.9827 302.601 74.0561C303.09 74.1786 303.605 74.1541 304.045 73.9337C304.241 73.8358 304.413 73.7134 304.56 73.542C305.001 73.0034 305.05 72.122 304.682 71.4854ZM302.16 71.8527C302.454 71.8282 302.723 71.8772 302.919 71.9506C302.968 71.9751 303.017 71.9996 303.066 72.0241C303.09 72.0485 303.115 72.0485 303.139 72.073C303.139 72.073 303.115 72.073 303.09 72.0485C303.115 72.073 303.164 72.0975 303.188 72.122C303.139 72.0975 303.286 72.2689 303.262 72.2199C303.286 72.2444 303.286 72.2934 303.311 72.3423C303.311 72.3423 303.311 72.3668 303.311 72.3913C303.311 72.3913 303.311 72.4648 303.311 72.4892V72.5137C303.286 72.5137 303.262 72.5382 303.262 72.5382C303.262 72.5382 303.262 72.5382 303.286 72.5382C303.262 72.5382 303.213 72.5382 303.213 72.5382C303.188 72.5382 303.188 72.5382 303.188 72.5382H303.164C303.115 72.5382 303.041 72.5137 302.992 72.5137C302.968 72.5137 302.894 72.4892 302.894 72.4892C302.845 72.4648 302.796 72.4648 302.747 72.4403C302.65 72.3913 302.527 72.3423 302.429 72.2934C302.233 72.171 302.037 72.0485 301.841 71.9016C301.915 71.8772 302.037 71.8527 302.16 71.8527Z" fill="#FCB713"/>
<g opacity="0.5">
<g opacity="0.6">
<g opacity="0.6">
<path opacity="0.6" d="M152.769 157.735C152.793 159.155 152.842 160.599 152.867 162.019L152.94 166.304C152.94 166.402 152.867 166.475 152.794 166.475C152.696 166.475 152.622 166.402 152.622 166.328L152.696 162.044C152.72 160.599 152.745 159.179 152.769 157.735Z" fill="#231F20"/>
<path opacity="0.6" d="M153.04 174.873L153.089 179.158L153.113 183.442C153.113 183.613 152.966 183.785 152.795 183.785C152.624 183.785 152.452 183.638 152.452 183.467L152.477 179.182L152.526 174.897C152.526 174.751 152.648 174.628 152.795 174.628C152.917 174.628 153.04 174.751 153.04 174.873Z" fill="#231F20"/>
<path opacity="0.6" d="M153.137 192.01C153.137 194.875 153.137 197.715 153.137 200.579C153.137 200.775 152.966 200.946 152.77 200.946C152.574 200.946 152.402 200.775 152.402 200.579C152.402 197.715 152.402 194.875 152.402 192.01C152.402 191.814 152.574 191.643 152.77 191.643C152.966 191.667 153.137 191.814 153.137 192.01Z" fill="#231F20"/>
<path opacity="0.6" d="M153.113 209.149L153.089 213.433L153.04 217.718C153.04 217.865 152.917 217.963 152.771 217.963C152.624 217.963 152.526 217.84 152.526 217.718L152.477 213.433L152.452 209.149C152.452 208.977 152.599 208.83 152.771 208.806C152.966 208.83 153.113 208.977 153.113 209.149Z" fill="#231F20"/>
<path opacity="0.6" d="M152.94 226.288L152.867 230.376C152.842 231.747 152.818 233.094 152.793 234.465C152.769 233.094 152.72 231.747 152.72 230.376L152.646 226.288C152.646 226.19 152.72 226.141 152.793 226.141C152.867 226.141 152.94 226.214 152.94 226.288Z" fill="#231F20"/>
</g>
</g>
<g opacity="0.6">
<g opacity="0.6">
<path opacity="0.6" d="M172.462 157.734C172.56 159.155 172.633 160.599 172.682 162.019C172.707 162.729 172.731 163.439 172.756 164.174C172.78 164.884 172.805 165.594 172.805 166.328C172.805 166.499 172.658 166.646 172.486 166.646C172.315 166.646 172.168 166.499 172.168 166.328C172.168 165.618 172.192 164.908 172.217 164.174C172.241 163.464 172.266 162.754 172.29 162.019C172.315 160.599 172.364 159.179 172.462 157.734Z" fill="#231F20"/>
<path opacity="0.6" d="M172.805 174.872L172.78 177.027L172.731 179.157C172.682 180.577 172.633 182.021 172.56 183.441C172.56 183.49 172.511 183.515 172.462 183.515C172.413 183.515 172.388 183.49 172.388 183.441C172.315 182.021 172.266 180.577 172.217 179.157L172.168 177.027L172.144 174.872C172.144 174.676 172.29 174.529 172.486 174.529C172.658 174.529 172.805 174.676 172.805 174.872Z" fill="#231F20"/>
</g>
</g>
<g opacity="0.6">
<g opacity="0.6">
<path opacity="0.6" d="M189.897 140.597C189.971 142.017 189.995 143.461 190.044 144.881C190.093 146.301 190.118 147.746 190.142 149.166C190.142 149.313 190.044 149.411 189.897 149.411C189.75 149.411 189.652 149.313 189.652 149.166C189.677 147.746 189.701 146.301 189.75 144.881C189.799 143.437 189.824 142.017 189.897 140.597Z" fill="#231F20"/>
<path opacity="0.6" d="M190.239 157.734L190.264 162.019V166.304C190.264 166.499 190.093 166.671 189.897 166.671C189.701 166.671 189.529 166.524 189.529 166.304V162.019L189.554 157.734C189.554 157.539 189.701 157.392 189.897 157.392C190.093 157.392 190.239 157.539 190.239 157.734Z" fill="#231F20"/>
<path opacity="0.6" d="M190.167 174.874C190.142 176.294 190.118 177.738 190.093 179.158L189.971 183.443C189.971 183.467 189.946 183.492 189.922 183.492C189.897 183.492 189.873 183.467 189.873 183.443L189.75 179.158C189.726 177.738 189.677 176.294 189.677 174.874C189.677 174.727 189.799 174.605 189.946 174.605C190.044 174.605 190.142 174.703 190.167 174.874Z" fill="#231F20"/>
</g>
</g>
<g opacity="0.6">
<g opacity="0.6">
<path opacity="0.6" d="M210.151 140.597L210.224 144.881L210.273 149.166C210.273 149.239 210.224 149.288 210.151 149.288C210.077 149.288 210.028 149.239 210.028 149.166L210.077 144.881L210.151 140.597Z" fill="#231F20"/>
<path opacity="0.6" d="M210.372 157.736L210.445 166.305C210.445 166.477 210.323 166.599 210.151 166.599C209.98 166.599 209.857 166.477 209.857 166.305L209.931 157.736C209.931 157.614 210.029 157.516 210.151 157.516C210.274 157.516 210.372 157.614 210.372 157.736Z" fill="#231F20"/>
<path opacity="0.6" d="M210.495 174.874L210.52 183.443C210.52 183.639 210.373 183.786 210.177 183.786C209.981 183.786 209.834 183.639 209.834 183.443L209.858 174.874C209.858 174.702 210.005 174.556 210.177 174.556C210.348 174.531 210.495 174.678 210.495 174.874Z" fill="#231F20"/>
<path opacity="0.6" d="M210.519 192.011L210.494 200.58C210.494 200.776 210.347 200.923 210.152 200.923C209.956 200.923 209.809 200.776 209.809 200.58L209.784 192.011C209.784 191.815 209.956 191.644 210.152 191.644C210.347 191.644 210.519 191.815 210.519 192.011Z" fill="#231F20"/>
<path opacity="0.6" d="M210.471 209.148L210.446 213.433L210.422 217.718C210.422 217.864 210.299 217.962 210.177 217.962C210.03 217.962 209.932 217.84 209.932 217.718L209.907 213.433L209.883 209.148C209.883 208.977 210.03 208.83 210.201 208.83C210.324 208.83 210.471 208.977 210.471 209.148Z" fill="#231F20"/>
<path opacity="0.6" d="M210.322 226.288L210.2 234.857C210.2 234.881 210.175 234.906 210.151 234.906C210.126 234.906 210.102 234.881 210.102 234.857L209.979 226.288C209.979 226.19 210.053 226.116 210.151 226.116C210.249 226.116 210.322 226.19 210.322 226.288Z" fill="#231F20"/>
</g>
</g>
<g opacity="0.6">
<g opacity="0.6">
<path opacity="0.6" d="M226.511 125.025C226.609 126.445 226.658 127.889 226.707 129.309C226.756 130.729 226.78 132.174 226.829 133.594C226.829 133.765 226.707 133.912 226.535 133.912C226.364 133.912 226.217 133.789 226.217 133.618C226.217 133.618 226.217 133.618 226.217 133.594C226.241 132.174 226.29 130.729 226.339 129.309C226.364 127.865 226.413 126.445 226.511 125.025Z" fill="#231F20"/>
<path opacity="0.6" d="M226.853 142.163C226.853 142.873 226.853 143.583 226.828 144.318L226.804 146.472L226.779 148.578C226.755 149.288 226.755 149.998 226.73 150.732C226.73 150.855 226.632 150.953 226.51 150.928C226.387 150.928 226.314 150.83 226.314 150.732C226.289 150.022 226.265 149.312 226.265 148.578L226.216 146.423L226.191 144.269C226.191 143.559 226.191 142.849 226.167 142.114C226.167 141.918 226.314 141.747 226.534 141.747C226.755 141.747 226.853 141.943 226.853 142.163C226.853 142.163 226.853 142.139 226.853 142.163Z" fill="#231F20"/>
</g>
</g>
</g>
<path opacity="0.3" d="M152.773 157.761C153.95 157.761 154.904 156.807 154.904 155.631C154.904 154.455 153.95 153.501 152.773 153.501C151.597 153.501 150.643 154.455 150.643 155.631C150.643 156.807 151.597 157.761 152.773 157.761Z" fill="#6457A4"/>
<path opacity="0.3" d="M172.464 157.761C173.64 157.761 174.594 156.807 174.594 155.631C174.594 154.455 173.64 153.501 172.464 153.501C171.287 153.501 170.333 154.455 170.333 155.631C170.333 156.807 171.287 157.761 172.464 157.761Z" fill="#6457A4"/>
<path opacity="0.3" d="M190.535 141.748C191.712 141.748 192.666 140.795 192.666 139.618C192.666 138.442 191.712 137.488 190.535 137.488C189.358 137.488 188.404 138.442 188.404 139.618C188.404 140.795 189.358 141.748 190.535 141.748Z" fill="#6457A4"/>
<path opacity="0.3" d="M210.223 141.748C211.4 141.748 212.354 140.795 212.354 139.618C212.354 138.442 211.4 137.488 210.223 137.488C209.047 137.488 208.093 138.442 208.093 139.618C208.093 140.795 209.047 141.748 210.223 141.748Z" fill="#6457A4"/>
<path opacity="0.3" d="M226.071 126.837C227.248 126.837 228.202 125.884 228.202 124.707C228.202 123.531 227.248 122.577 226.071 122.577C224.894 122.577 223.94 123.531 223.94 124.707C223.94 125.884 224.894 126.837 226.071 126.837Z" fill="#6457A4"/>
<path opacity="0.4" d="M241.746 117.755L226.073 124.708L210.227 139.618H190.537L172.464 155.63H152.773" stroke="#6457A4" stroke-width="5" stroke-miterlimit="10" stroke-linecap="round" stroke-linejoin="round"/>
<path opacity="0.4" d="M238.584 117.755H241.743L239.637 119.861" stroke="#6457A4" stroke-width="5" stroke-miterlimit="10" stroke-linecap="round" stroke-linejoin="round"/>
</g>
</svg>
